<mxfile host="app.diagrams.net" modified="2023-10-17T09:44:37.709Z" agent="Mozilla/5.0 (Windows NT 10.0; Win64; x64) AppleWebKit/537.36 (KHTML, like Gecko) Chrome/118.0.0.0 Safari/537.36" etag="lrvA-uIE2KY3ZZhQlI1v" version="22.0.4" type="github">
  <diagram name="第 1 页" id="PNhr8kcbTlroX-baOO0i">
    <mxGraphModel dx="6913" dy="3700" grid="0" gridSize="10" guides="1" tooltips="1" connect="1" arrows="1" fold="1" page="1" pageScale="1" pageWidth="3300" pageHeight="4681" background="#000000" math="1" shadow="0">
      <root>
        <mxCell id="0" />
        <mxCell id="1" parent="0" />
        <mxCell id="MEwA-Q_oqiYRqp0OGWWu-137" value="" style="rounded=0;whiteSpace=wrap;html=1;fillColor=none;strokeColor=#FFFFCC;strokeWidth=3;perimeterSpacing=0;glass=0;shadow=0;dashed=1;dashPattern=1 1;" vertex="1" parent="1">
          <mxGeometry x="207" y="344" width="1399" height="803" as="geometry" />
        </mxCell>
        <mxCell id="MEwA-Q_oqiYRqp0OGWWu-136" value="" style="rounded=0;whiteSpace=wrap;html=1;fillColor=#000000;strokeColor=#FFFFFF;strokeWidth=2;shape=table;startSize=0;container=1;collapsible=0;childLayout=tableLayout;fontSize=16;" vertex="1" parent="1">
          <mxGeometry x="282" y="398.25" width="1265" height="622.75" as="geometry" />
        </mxCell>
        <mxCell id="MEwA-Q_oqiYRqp0OGWWu-134" value="" style="rounded=0;whiteSpace=wrap;html=1;fillColor=#000000;strokeColor=#FFFFFF;strokeWidth=2;shape=table;startSize=0;container=1;collapsible=0;childLayout=tableLayout;fontSize=16;" vertex="1" parent="1">
          <mxGeometry x="258" y="443.5" width="1221" height="618.5" as="geometry" />
        </mxCell>
        <mxCell id="MEwA-Q_oqiYRqp0OGWWu-69" style="edgeStyle=orthogonalEdgeStyle;rounded=0;orthogonalLoop=1;jettySize=auto;html=1;exitX=1;exitY=0.25;exitDx=0;exitDy=0;entryX=0;entryY=0.25;entryDx=0;entryDy=0;strokeWidth=2;strokeColor=#FFFFFF;" edge="1" parent="1">
          <mxGeometry relative="1" as="geometry">
            <mxPoint x="1414" y="1659" as="sourcePoint" />
            <mxPoint x="1535" y="1658" as="targetPoint" />
          </mxGeometry>
        </mxCell>
        <mxCell id="MEwA-Q_oqiYRqp0OGWWu-73" style="edgeStyle=orthogonalEdgeStyle;rounded=0;orthogonalLoop=1;jettySize=auto;html=1;exitX=1;exitY=0.25;exitDx=0;exitDy=0;entryX=0.5;entryY=1;entryDx=0;entryDy=0;strokeWidth=2;strokeColor=#FFFFFF;" edge="1" parent="1" target="MEwA-Q_oqiYRqp0OGWWu-71">
          <mxGeometry relative="1" as="geometry">
            <mxPoint x="1414" y="1660" as="sourcePoint" />
            <mxPoint x="1690" y="1745" as="targetPoint" />
            <Array as="points">
              <mxPoint x="1481" y="1660" />
              <mxPoint x="1481" y="1820" />
              <mxPoint x="1690" y="1820" />
            </Array>
          </mxGeometry>
        </mxCell>
        <mxCell id="PrBTOdZ4H55qHyfsa1yD-317" value="" style="rounded=0;whiteSpace=wrap;html=1;fillColor=none;strokeColor=#FFFFCC;strokeWidth=3;perimeterSpacing=0;glass=0;shadow=0;dashed=1;dashPattern=1 1;" parent="1" vertex="1">
          <mxGeometry x="210" y="1346" width="1204" height="972" as="geometry" />
        </mxCell>
        <mxCell id="MEwA-Q_oqiYRqp0OGWWu-29" value="" style="rounded=0;whiteSpace=wrap;html=1;fillColor=none;strokeWidth=2;dashed=1;dashPattern=12 12;strokeColor=#FFFFFF;" vertex="1" parent="1">
          <mxGeometry x="737.75" y="1452" width="624.25" height="746" as="geometry" />
        </mxCell>
        <mxCell id="MEwA-Q_oqiYRqp0OGWWu-20" value="" style="rounded=0;whiteSpace=wrap;html=1;fillColor=#000000;strokeColor=#004C99;strokeWidth=2;" vertex="1" parent="1">
          <mxGeometry x="1267.5" y="1751" width="44" height="44" as="geometry" />
        </mxCell>
        <mxCell id="MEwA-Q_oqiYRqp0OGWWu-19" value="" style="rounded=0;whiteSpace=wrap;html=1;fillColor=#000000;strokeColor=#004C99;strokeWidth=2;" vertex="1" parent="1">
          <mxGeometry x="1267.5" y="1666" width="44" height="44" as="geometry" />
        </mxCell>
        <mxCell id="MEwA-Q_oqiYRqp0OGWWu-18" value="" style="rounded=0;whiteSpace=wrap;html=1;fillColor=#000000;strokeColor=#004C99;strokeWidth=2;" vertex="1" parent="1">
          <mxGeometry x="1267.5" y="1608.5" width="44" height="44" as="geometry" />
        </mxCell>
        <mxCell id="MEwA-Q_oqiYRqp0OGWWu-17" value="" style="rounded=0;whiteSpace=wrap;html=1;fillColor=#000000;strokeColor=#004C99;strokeWidth=2;" vertex="1" parent="1">
          <mxGeometry x="1267.5" y="1557.5" width="44" height="44" as="geometry" />
        </mxCell>
        <mxCell id="MEwA-Q_oqiYRqp0OGWWu-1" value="" style="rounded=0;whiteSpace=wrap;html=1;fillColor=#000000;strokeWidth=2;dashed=1;dashPattern=12 12;strokeColor=#FFFFFF;" vertex="1" parent="1">
          <mxGeometry x="705.75" y="1492" width="607.25" height="766" as="geometry" />
        </mxCell>
        <mxCell id="PrBTOdZ4H55qHyfsa1yD-304" value="" style="rounded=0;whiteSpace=wrap;html=1;fillColor=#000000;strokeColor=#FFFFFF;strokeWidth=2;shape=table;startSize=0;container=1;collapsible=0;childLayout=tableLayout;fontSize=16;" parent="1" vertex="1">
          <mxGeometry x="237" y="488" width="1172" height="610" as="geometry" />
        </mxCell>
        <mxCell id="PrBTOdZ4H55qHyfsa1yD-89" value="" style="shape=table;startSize=0;container=1;collapsible=0;childLayout=tableLayout;fontSize=16;fillColor=#000000;strokeColor=#99004D;strokeWidth=2;fontColor=#FFFFFF;" parent="1" vertex="1">
          <mxGeometry x="463" y="1607" width="174" height="39" as="geometry" />
        </mxCell>
        <mxCell id="PrBTOdZ4H55qHyfsa1yD-90" value="" style="shape=tableRow;horizontal=0;startSize=0;swimlaneHead=0;swimlaneBody=0;strokeColor=inherit;top=0;left=0;bottom=0;right=0;collapsible=0;dropTarget=0;fillColor=none;points=[[0,0.5],[1,0.5]];portConstraint=eastwest;fontSize=16;fontColor=#FFFFFF;" parent="PrBTOdZ4H55qHyfsa1yD-89" vertex="1">
          <mxGeometry width="174" height="39" as="geometry" />
        </mxCell>
        <mxCell id="PrBTOdZ4H55qHyfsa1yD-91" value="" style="shape=partialRectangle;html=1;whiteSpace=wrap;connectable=0;strokeColor=inherit;overflow=hidden;fillColor=none;top=0;left=0;bottom=0;right=0;pointerEvents=1;fontSize=18;fontColor=#FFFFFF;verticalAlign=middle;horizontal=1;" parent="PrBTOdZ4H55qHyfsa1yD-90" vertex="1">
          <mxGeometry width="58" height="39" as="geometry">
            <mxRectangle width="58" height="39" as="alternateBounds" />
          </mxGeometry>
        </mxCell>
        <mxCell id="PrBTOdZ4H55qHyfsa1yD-92" value="" style="shape=partialRectangle;html=1;whiteSpace=wrap;connectable=0;strokeColor=inherit;overflow=hidden;fillColor=none;top=0;left=0;bottom=0;right=0;pointerEvents=1;fontSize=16;fontColor=#FFFFFF;" parent="PrBTOdZ4H55qHyfsa1yD-90" vertex="1">
          <mxGeometry x="58" width="58" height="39" as="geometry">
            <mxRectangle width="58" height="39" as="alternateBounds" />
          </mxGeometry>
        </mxCell>
        <mxCell id="PrBTOdZ4H55qHyfsa1yD-93" value="" style="shape=partialRectangle;html=1;whiteSpace=wrap;connectable=0;strokeColor=inherit;overflow=hidden;fillColor=none;top=0;left=0;bottom=0;right=0;pointerEvents=1;fontSize=16;fontColor=#FFFFFF;" parent="PrBTOdZ4H55qHyfsa1yD-90" vertex="1">
          <mxGeometry x="116" width="58" height="39" as="geometry">
            <mxRectangle width="58" height="39" as="alternateBounds" />
          </mxGeometry>
        </mxCell>
        <mxCell id="PrBTOdZ4H55qHyfsa1yD-137" style="edgeStyle=orthogonalEdgeStyle;rounded=0;orthogonalLoop=1;jettySize=auto;html=1;exitX=1;exitY=0.25;exitDx=0;exitDy=0;entryX=0;entryY=0.25;entryDx=0;entryDy=0;strokeColor=#FFFFFF;strokeWidth=2;" parent="1" source="PrBTOdZ4H55qHyfsa1yD-23" target="PrBTOdZ4H55qHyfsa1yD-135" edge="1">
          <mxGeometry relative="1" as="geometry" />
        </mxCell>
        <mxCell id="PrBTOdZ4H55qHyfsa1yD-138" style="edgeStyle=orthogonalEdgeStyle;rounded=0;orthogonalLoop=1;jettySize=auto;html=1;exitX=1;exitY=0.5;exitDx=0;exitDy=0;entryX=0;entryY=0.5;entryDx=0;entryDy=0;strokeColor=#FFFFFF;strokeWidth=2;" parent="1" source="PrBTOdZ4H55qHyfsa1yD-23" target="PrBTOdZ4H55qHyfsa1yD-135" edge="1">
          <mxGeometry relative="1" as="geometry" />
        </mxCell>
        <mxCell id="PrBTOdZ4H55qHyfsa1yD-139" style="edgeStyle=orthogonalEdgeStyle;rounded=0;orthogonalLoop=1;jettySize=auto;html=1;exitX=1;exitY=0.75;exitDx=0;exitDy=0;entryX=0;entryY=0.75;entryDx=0;entryDy=0;strokeColor=#FFFFFF;strokeWidth=2;" parent="1" source="PrBTOdZ4H55qHyfsa1yD-23" target="PrBTOdZ4H55qHyfsa1yD-135" edge="1">
          <mxGeometry relative="1" as="geometry" />
        </mxCell>
        <mxCell id="MEwA-Q_oqiYRqp0OGWWu-44" style="edgeStyle=orthogonalEdgeStyle;rounded=0;orthogonalLoop=1;jettySize=auto;html=1;exitX=1;exitY=0.5;exitDx=0;exitDy=0;entryX=0.5;entryY=0;entryDx=0;entryDy=0;strokeColor=#FFFFFF;strokeWidth=3;" edge="1" parent="1">
          <mxGeometry relative="1" as="geometry">
            <mxPoint x="660" y="1672" as="sourcePoint" />
            <mxPoint x="1109.9999999999995" y="1656" as="targetPoint" />
            <Array as="points">
              <mxPoint x="697" y="1672" />
              <mxPoint x="697" y="1519" />
              <mxPoint x="1110" y="1519" />
            </Array>
          </mxGeometry>
        </mxCell>
        <mxCell id="MEwA-Q_oqiYRqp0OGWWu-144" style="edgeStyle=orthogonalEdgeStyle;rounded=0;orthogonalLoop=1;jettySize=auto;html=1;exitX=0.5;exitY=0;exitDx=0;exitDy=0;entryX=1;entryY=0.5;entryDx=0;entryDy=0;strokeColor=#FFFFFF;strokeWidth=2;" edge="1" parent="1" source="PrBTOdZ4H55qHyfsa1yD-23" target="MEwA-Q_oqiYRqp0OGWWu-161">
          <mxGeometry relative="1" as="geometry">
            <mxPoint x="549" y="1528.12" as="sourcePoint" />
            <mxPoint x="2715.25" y="766.9999999999999" as="targetPoint" />
            <Array as="points">
              <mxPoint x="549" y="1289" />
              <mxPoint x="100" y="1289" />
              <mxPoint x="100" y="2409" />
              <mxPoint x="2986" y="2409" />
              <mxPoint x="2986" y="797" />
            </Array>
          </mxGeometry>
        </mxCell>
        <mxCell id="PrBTOdZ4H55qHyfsa1yD-23" value="" style="rounded=0;whiteSpace=wrap;html=1;labelBackgroundColor=none;fontColor=#FFFFFF;fillColor=none;strokeColor=#FFFFFF;strokeWidth=2;" parent="1" vertex="1">
          <mxGeometry x="438" y="1535" width="222" height="274" as="geometry" />
        </mxCell>
        <mxCell id="PrBTOdZ4H55qHyfsa1yD-132" style="edgeStyle=orthogonalEdgeStyle;rounded=0;orthogonalLoop=1;jettySize=auto;html=1;exitX=1;exitY=0.5;exitDx=0;exitDy=0;entryX=0;entryY=0.5;entryDx=0;entryDy=0;strokeColor=#FFFFFF;strokeWidth=2;" parent="1" source="PrBTOdZ4H55qHyfsa1yD-1" target="PrBTOdZ4H55qHyfsa1yD-23" edge="1">
          <mxGeometry relative="1" as="geometry" />
        </mxCell>
        <mxCell id="PrBTOdZ4H55qHyfsa1yD-1" value="" style="rounded=0;whiteSpace=wrap;html=1;fillColor=none;fontColor=#ffffff;strokeColor=#FFFFFF;strokeWidth=2;fontSize=18;" parent="1" vertex="1">
          <mxGeometry x="232" y="1537" width="126" height="270" as="geometry" />
        </mxCell>
        <mxCell id="PrBTOdZ4H55qHyfsa1yD-3" value="POI Sequence&lt;br style=&quot;font-size: 18px;&quot;&gt;$$L_u$$&amp;nbsp;" style="text;html=1;strokeColor=none;fillColor=none;align=center;verticalAlign=middle;whiteSpace=wrap;rounded=0;fontColor=#FFFFFF;fontSize=18;" parent="1" vertex="1">
          <mxGeometry x="183" y="1819" width="224" height="98" as="geometry" />
        </mxCell>
        <mxCell id="PrBTOdZ4H55qHyfsa1yD-6" value="$$(u_i, l_1, t_1)$$" style="text;html=1;strokeColor=none;fillColor=none;align=center;verticalAlign=middle;whiteSpace=wrap;rounded=0;fontColor=#FFFFFF;fontSize=18;" parent="1" vertex="1">
          <mxGeometry x="255" y="1543" width="80" height="40" as="geometry" />
        </mxCell>
        <mxCell id="PrBTOdZ4H55qHyfsa1yD-7" value="$$(u_i, l_2, t_2)$$" style="text;html=1;strokeColor=none;fillColor=none;align=center;verticalAlign=middle;whiteSpace=wrap;rounded=0;fontColor=#FFFFFF;fontSize=18;" parent="1" vertex="1">
          <mxGeometry x="255" y="1591" width="80" height="40" as="geometry" />
        </mxCell>
        <mxCell id="PrBTOdZ4H55qHyfsa1yD-8" value="$$(u_i, l_3, t_3)$$" style="text;html=1;strokeColor=none;fillColor=none;align=center;verticalAlign=middle;whiteSpace=wrap;rounded=0;fontColor=#FFFFFF;fontSize=18;" parent="1" vertex="1">
          <mxGeometry x="255" y="1638" width="80" height="40" as="geometry" />
        </mxCell>
        <mxCell id="PrBTOdZ4H55qHyfsa1yD-9" value="$$(u_i, l_n, t_n)$$" style="text;html=1;strokeColor=none;fillColor=none;align=center;verticalAlign=middle;whiteSpace=wrap;rounded=0;fontColor=#FFFFFF;fontSize=18;" parent="1" vertex="1">
          <mxGeometry x="255" y="1763" width="80" height="40" as="geometry" />
        </mxCell>
        <mxCell id="PrBTOdZ4H55qHyfsa1yD-10" value="&lt;font color=&quot;#ffffff&quot; style=&quot;font-size: 18px;&quot;&gt;...&lt;/font&gt;" style="text;html=1;strokeColor=none;fillColor=none;align=center;verticalAlign=middle;whiteSpace=wrap;rounded=0;fontSize=18;" parent="1" vertex="1">
          <mxGeometry x="265" y="1705" width="60" height="30" as="geometry" />
        </mxCell>
        <mxCell id="PrBTOdZ4H55qHyfsa1yD-11" value="&lt;font color=&quot;#ffffff&quot; style=&quot;font-size: 18px;&quot;&gt;...&lt;/font&gt;" style="text;html=1;strokeColor=none;fillColor=none;align=center;verticalAlign=middle;whiteSpace=wrap;rounded=0;fontSize=18;" parent="1" vertex="1">
          <mxGeometry x="265" y="1730" width="60" height="30" as="geometry" />
        </mxCell>
        <mxCell id="PrBTOdZ4H55qHyfsa1yD-12" value="&lt;font color=&quot;#ffffff&quot; style=&quot;font-size: 18px;&quot;&gt;...&lt;/font&gt;" style="text;html=1;strokeColor=none;fillColor=none;align=center;verticalAlign=middle;whiteSpace=wrap;rounded=0;fontSize=18;" parent="1" vertex="1">
          <mxGeometry x="265" y="1680" width="60" height="30" as="geometry" />
        </mxCell>
        <mxCell id="PrBTOdZ4H55qHyfsa1yD-133" style="edgeStyle=orthogonalEdgeStyle;rounded=0;orthogonalLoop=1;jettySize=auto;html=1;exitX=1;exitY=0.5;exitDx=0;exitDy=0;entryX=0;entryY=0.5;entryDx=0;entryDy=0;strokeColor=#FFFFFF;strokeWidth=2;" parent="1" source="PrBTOdZ4H55qHyfsa1yD-13" target="PrBTOdZ4H55qHyfsa1yD-102" edge="1">
          <mxGeometry relative="1" as="geometry" />
        </mxCell>
        <mxCell id="PrBTOdZ4H55qHyfsa1yD-13" value="" style="rounded=0;whiteSpace=wrap;html=1;fillColor=none;fontColor=#ffffff;strokeColor=#FFFFFF;strokeWidth=2;fontSize=18;" parent="1" vertex="1">
          <mxGeometry x="232" y="1897" width="126" height="270" as="geometry" />
        </mxCell>
        <mxCell id="PrBTOdZ4H55qHyfsa1yD-16" value="$$(u_i, c_1, t_1)$$" style="text;html=1;strokeColor=none;fillColor=none;align=center;verticalAlign=middle;whiteSpace=wrap;rounded=0;fontColor=#FFFFFF;fontSize=18;" parent="1" vertex="1">
          <mxGeometry x="255" y="1903" width="80" height="40" as="geometry" />
        </mxCell>
        <mxCell id="PrBTOdZ4H55qHyfsa1yD-17" value="$$(u_i, c_2, t_2)$$" style="text;html=1;strokeColor=none;fillColor=none;align=center;verticalAlign=middle;whiteSpace=wrap;rounded=0;fontColor=#FFFFFF;fontSize=18;" parent="1" vertex="1">
          <mxGeometry x="255" y="1951" width="80" height="40" as="geometry" />
        </mxCell>
        <mxCell id="PrBTOdZ4H55qHyfsa1yD-18" value="$$(u_i, c_3, t_3)$$" style="text;html=1;strokeColor=none;fillColor=none;align=center;verticalAlign=middle;whiteSpace=wrap;rounded=0;fontColor=#FFFFFF;fontSize=18;" parent="1" vertex="1">
          <mxGeometry x="255" y="1998" width="80" height="40" as="geometry" />
        </mxCell>
        <mxCell id="PrBTOdZ4H55qHyfsa1yD-19" value="$$(u_i, c_n, t_n)$$" style="text;html=1;strokeColor=none;fillColor=none;align=center;verticalAlign=middle;whiteSpace=wrap;rounded=0;fontColor=#FFFFFF;fontSize=18;" parent="1" vertex="1">
          <mxGeometry x="255" y="2123" width="80" height="40" as="geometry" />
        </mxCell>
        <mxCell id="PrBTOdZ4H55qHyfsa1yD-20" value="&lt;font color=&quot;#ffffff&quot; style=&quot;font-size: 18px;&quot;&gt;...&lt;/font&gt;" style="text;html=1;strokeColor=none;fillColor=none;align=center;verticalAlign=middle;whiteSpace=wrap;rounded=0;fontSize=18;" parent="1" vertex="1">
          <mxGeometry x="265" y="2065" width="60" height="30" as="geometry" />
        </mxCell>
        <mxCell id="PrBTOdZ4H55qHyfsa1yD-21" value="&lt;font color=&quot;#ffffff&quot; style=&quot;font-size: 18px;&quot;&gt;...&lt;/font&gt;" style="text;html=1;strokeColor=none;fillColor=none;align=center;verticalAlign=middle;whiteSpace=wrap;rounded=0;fontSize=18;" parent="1" vertex="1">
          <mxGeometry x="265" y="2090" width="60" height="30" as="geometry" />
        </mxCell>
        <mxCell id="PrBTOdZ4H55qHyfsa1yD-22" value="&lt;font color=&quot;#ffffff&quot; style=&quot;font-size: 18px;&quot;&gt;...&lt;/font&gt;" style="text;html=1;strokeColor=none;fillColor=none;align=center;verticalAlign=middle;whiteSpace=wrap;rounded=0;fontSize=18;" parent="1" vertex="1">
          <mxGeometry x="265" y="2040" width="60" height="30" as="geometry" />
        </mxCell>
        <mxCell id="PrBTOdZ4H55qHyfsa1yD-37" value="" style="shape=table;startSize=0;container=1;collapsible=0;childLayout=tableLayout;fontSize=16;fillColor=#000000;strokeColor=#99004D;strokeWidth=2;fontColor=#FFFFFF;" parent="1" vertex="1">
          <mxGeometry x="462" y="1550" width="174" height="39" as="geometry" />
        </mxCell>
        <mxCell id="PrBTOdZ4H55qHyfsa1yD-38" value="" style="shape=tableRow;horizontal=0;startSize=0;swimlaneHead=0;swimlaneBody=0;strokeColor=inherit;top=0;left=0;bottom=0;right=0;collapsible=0;dropTarget=0;fillColor=none;points=[[0,0.5],[1,0.5]];portConstraint=eastwest;fontSize=16;fontColor=#FFFFFF;" parent="PrBTOdZ4H55qHyfsa1yD-37" vertex="1">
          <mxGeometry width="174" height="39" as="geometry" />
        </mxCell>
        <mxCell id="PrBTOdZ4H55qHyfsa1yD-39" value="" style="shape=partialRectangle;html=1;whiteSpace=wrap;connectable=0;strokeColor=inherit;overflow=hidden;fillColor=none;top=0;left=0;bottom=0;right=0;pointerEvents=1;fontSize=18;fontColor=#FFFFFF;verticalAlign=middle;horizontal=1;" parent="PrBTOdZ4H55qHyfsa1yD-38" vertex="1">
          <mxGeometry width="58" height="39" as="geometry">
            <mxRectangle width="58" height="39" as="alternateBounds" />
          </mxGeometry>
        </mxCell>
        <mxCell id="PrBTOdZ4H55qHyfsa1yD-40" value="" style="shape=partialRectangle;html=1;whiteSpace=wrap;connectable=0;strokeColor=inherit;overflow=hidden;fillColor=none;top=0;left=0;bottom=0;right=0;pointerEvents=1;fontSize=16;fontColor=#FFFFFF;" parent="PrBTOdZ4H55qHyfsa1yD-38" vertex="1">
          <mxGeometry x="58" width="58" height="39" as="geometry">
            <mxRectangle width="58" height="39" as="alternateBounds" />
          </mxGeometry>
        </mxCell>
        <mxCell id="PrBTOdZ4H55qHyfsa1yD-41" value="" style="shape=partialRectangle;html=1;whiteSpace=wrap;connectable=0;strokeColor=inherit;overflow=hidden;fillColor=none;top=0;left=0;bottom=0;right=0;pointerEvents=1;fontSize=16;fontColor=#FFFFFF;" parent="PrBTOdZ4H55qHyfsa1yD-38" vertex="1">
          <mxGeometry x="116" width="58" height="39" as="geometry">
            <mxRectangle width="58" height="39" as="alternateBounds" />
          </mxGeometry>
        </mxCell>
        <mxCell id="PrBTOdZ4H55qHyfsa1yD-59" value="$$e^{u_i}$$" style="text;html=1;strokeColor=none;fillColor=none;align=center;verticalAlign=middle;whiteSpace=wrap;rounded=0;fontColor=#FFFFFF;fontSize=18;" parent="1" vertex="1">
          <mxGeometry x="462" y="1549.5" width="58" height="38.5" as="geometry" />
        </mxCell>
        <mxCell id="PrBTOdZ4H55qHyfsa1yD-60" value="$$e^{l_1}$$" style="text;html=1;strokeColor=none;fillColor=none;align=center;verticalAlign=middle;whiteSpace=wrap;rounded=0;fontColor=#FFFFFF;fontSize=18;" parent="1" vertex="1">
          <mxGeometry x="520" y="1549.5" width="58" height="38.5" as="geometry" />
        </mxCell>
        <mxCell id="PrBTOdZ4H55qHyfsa1yD-61" value="$$e^{t_1}$$" style="text;html=1;strokeColor=none;fillColor=none;align=center;verticalAlign=middle;whiteSpace=wrap;rounded=0;fontColor=#FFFFFF;fontSize=18;" parent="1" vertex="1">
          <mxGeometry x="578" y="1549.5" width="58" height="38.5" as="geometry" />
        </mxCell>
        <mxCell id="PrBTOdZ4H55qHyfsa1yD-67" value="$$e^{u_i}$$" style="text;html=1;strokeColor=none;fillColor=none;align=center;verticalAlign=middle;whiteSpace=wrap;rounded=0;fontColor=#FFFFFF;fontSize=18;" parent="1" vertex="1">
          <mxGeometry x="463" y="1608.5" width="58" height="38.5" as="geometry" />
        </mxCell>
        <mxCell id="PrBTOdZ4H55qHyfsa1yD-68" value="$$e^{l_2}$$" style="text;html=1;strokeColor=none;fillColor=none;align=center;verticalAlign=middle;whiteSpace=wrap;rounded=0;fontColor=#FFFFFF;fontSize=18;" parent="1" vertex="1">
          <mxGeometry x="521" y="1608.5" width="58" height="38.5" as="geometry" />
        </mxCell>
        <mxCell id="PrBTOdZ4H55qHyfsa1yD-69" value="$$e^{t_2}$$" style="text;html=1;strokeColor=none;fillColor=none;align=center;verticalAlign=middle;whiteSpace=wrap;rounded=0;fontColor=#FFFFFF;fontSize=18;" parent="1" vertex="1">
          <mxGeometry x="580" y="1608.5" width="58" height="38.5" as="geometry" />
        </mxCell>
        <mxCell id="PrBTOdZ4H55qHyfsa1yD-70" value="" style="shape=table;startSize=0;container=1;collapsible=0;childLayout=tableLayout;fontSize=16;fillColor=#000000;strokeColor=#99004D;strokeWidth=2;fontColor=#FFFFFF;" parent="1" vertex="1">
          <mxGeometry x="464" y="1667" width="174" height="39" as="geometry" />
        </mxCell>
        <mxCell id="PrBTOdZ4H55qHyfsa1yD-71" value="" style="shape=tableRow;horizontal=0;startSize=0;swimlaneHead=0;swimlaneBody=0;strokeColor=inherit;top=0;left=0;bottom=0;right=0;collapsible=0;dropTarget=0;fillColor=none;points=[[0,0.5],[1,0.5]];portConstraint=eastwest;fontSize=16;fontColor=#FFFFFF;" parent="PrBTOdZ4H55qHyfsa1yD-70" vertex="1">
          <mxGeometry width="174" height="39" as="geometry" />
        </mxCell>
        <mxCell id="PrBTOdZ4H55qHyfsa1yD-72" value="" style="shape=partialRectangle;html=1;whiteSpace=wrap;connectable=0;strokeColor=inherit;overflow=hidden;fillColor=none;top=0;left=0;bottom=0;right=0;pointerEvents=1;fontSize=18;fontColor=#FFFFFF;verticalAlign=middle;horizontal=1;" parent="PrBTOdZ4H55qHyfsa1yD-71" vertex="1">
          <mxGeometry width="58" height="39" as="geometry">
            <mxRectangle width="58" height="39" as="alternateBounds" />
          </mxGeometry>
        </mxCell>
        <mxCell id="PrBTOdZ4H55qHyfsa1yD-73" value="" style="shape=partialRectangle;html=1;whiteSpace=wrap;connectable=0;strokeColor=inherit;overflow=hidden;fillColor=none;top=0;left=0;bottom=0;right=0;pointerEvents=1;fontSize=16;fontColor=#FFFFFF;" parent="PrBTOdZ4H55qHyfsa1yD-71" vertex="1">
          <mxGeometry x="58" width="58" height="39" as="geometry">
            <mxRectangle width="58" height="39" as="alternateBounds" />
          </mxGeometry>
        </mxCell>
        <mxCell id="PrBTOdZ4H55qHyfsa1yD-74" value="" style="shape=partialRectangle;html=1;whiteSpace=wrap;connectable=0;strokeColor=inherit;overflow=hidden;fillColor=none;top=0;left=0;bottom=0;right=0;pointerEvents=1;fontSize=16;fontColor=#FFFFFF;" parent="PrBTOdZ4H55qHyfsa1yD-71" vertex="1">
          <mxGeometry x="116" width="58" height="39" as="geometry">
            <mxRectangle width="58" height="39" as="alternateBounds" />
          </mxGeometry>
        </mxCell>
        <mxCell id="PrBTOdZ4H55qHyfsa1yD-75" value="$$e^{u_i}$$" style="text;html=1;strokeColor=none;fillColor=none;align=center;verticalAlign=middle;whiteSpace=wrap;rounded=0;fontColor=#FFFFFF;fontSize=18;" parent="1" vertex="1">
          <mxGeometry x="464" y="1666.5" width="58" height="38.5" as="geometry" />
        </mxCell>
        <mxCell id="PrBTOdZ4H55qHyfsa1yD-76" value="$$e^{l_3}$$" style="text;html=1;strokeColor=none;fillColor=none;align=center;verticalAlign=middle;whiteSpace=wrap;rounded=0;fontColor=#FFFFFF;fontSize=18;" parent="1" vertex="1">
          <mxGeometry x="522" y="1666.5" width="58" height="38.5" as="geometry" />
        </mxCell>
        <mxCell id="PrBTOdZ4H55qHyfsa1yD-77" value="$$e^{t_3}$$" style="text;html=1;strokeColor=none;fillColor=none;align=center;verticalAlign=middle;whiteSpace=wrap;rounded=0;fontColor=#FFFFFF;fontSize=18;" parent="1" vertex="1">
          <mxGeometry x="580" y="1666.5" width="58" height="38.5" as="geometry" />
        </mxCell>
        <mxCell id="PrBTOdZ4H55qHyfsa1yD-78" value="" style="shape=table;startSize=0;container=1;collapsible=0;childLayout=tableLayout;fontSize=16;fillColor=#000000;strokeColor=#99004D;strokeWidth=2;fontColor=#FFFFFF;" parent="1" vertex="1">
          <mxGeometry x="466" y="1756" width="174" height="39" as="geometry" />
        </mxCell>
        <mxCell id="PrBTOdZ4H55qHyfsa1yD-79" value="" style="shape=tableRow;horizontal=0;startSize=0;swimlaneHead=0;swimlaneBody=0;strokeColor=inherit;top=0;left=0;bottom=0;right=0;collapsible=0;dropTarget=0;fillColor=none;points=[[0,0.5],[1,0.5]];portConstraint=eastwest;fontSize=16;fontColor=#FFFFFF;" parent="PrBTOdZ4H55qHyfsa1yD-78" vertex="1">
          <mxGeometry width="174" height="39" as="geometry" />
        </mxCell>
        <mxCell id="PrBTOdZ4H55qHyfsa1yD-80" value="" style="shape=partialRectangle;html=1;whiteSpace=wrap;connectable=0;strokeColor=inherit;overflow=hidden;fillColor=none;top=0;left=0;bottom=0;right=0;pointerEvents=1;fontSize=18;fontColor=#FFFFFF;verticalAlign=middle;horizontal=1;" parent="PrBTOdZ4H55qHyfsa1yD-79" vertex="1">
          <mxGeometry width="58" height="39" as="geometry">
            <mxRectangle width="58" height="39" as="alternateBounds" />
          </mxGeometry>
        </mxCell>
        <mxCell id="PrBTOdZ4H55qHyfsa1yD-81" value="" style="shape=partialRectangle;html=1;whiteSpace=wrap;connectable=0;strokeColor=inherit;overflow=hidden;fillColor=none;top=0;left=0;bottom=0;right=0;pointerEvents=1;fontSize=16;fontColor=#FFFFFF;" parent="PrBTOdZ4H55qHyfsa1yD-79" vertex="1">
          <mxGeometry x="58" width="58" height="39" as="geometry">
            <mxRectangle width="58" height="39" as="alternateBounds" />
          </mxGeometry>
        </mxCell>
        <mxCell id="PrBTOdZ4H55qHyfsa1yD-82" value="" style="shape=partialRectangle;html=1;whiteSpace=wrap;connectable=0;strokeColor=inherit;overflow=hidden;fillColor=none;top=0;left=0;bottom=0;right=0;pointerEvents=1;fontSize=16;fontColor=#FFFFFF;" parent="PrBTOdZ4H55qHyfsa1yD-79" vertex="1">
          <mxGeometry x="116" width="58" height="39" as="geometry">
            <mxRectangle width="58" height="39" as="alternateBounds" />
          </mxGeometry>
        </mxCell>
        <mxCell id="PrBTOdZ4H55qHyfsa1yD-83" value="$$e^{u_i}$$" style="text;html=1;strokeColor=none;fillColor=none;align=center;verticalAlign=middle;whiteSpace=wrap;rounded=0;fontColor=#FFFFFF;fontSize=18;" parent="1" vertex="1">
          <mxGeometry x="466" y="1755.5" width="58" height="38.5" as="geometry" />
        </mxCell>
        <mxCell id="PrBTOdZ4H55qHyfsa1yD-84" value="$$e^{l_n}$$" style="text;html=1;strokeColor=none;fillColor=none;align=center;verticalAlign=middle;whiteSpace=wrap;rounded=0;fontColor=#FFFFFF;fontSize=18;" parent="1" vertex="1">
          <mxGeometry x="524" y="1755.5" width="58" height="38.5" as="geometry" />
        </mxCell>
        <mxCell id="PrBTOdZ4H55qHyfsa1yD-85" value="$$e^{t_n}$$" style="text;html=1;strokeColor=none;fillColor=none;align=center;verticalAlign=middle;whiteSpace=wrap;rounded=0;fontColor=#FFFFFF;fontSize=18;" parent="1" vertex="1">
          <mxGeometry x="582" y="1755.5" width="58" height="38.5" as="geometry" />
        </mxCell>
        <mxCell id="PrBTOdZ4H55qHyfsa1yD-88" value="..." style="text;html=1;strokeColor=none;fillColor=none;align=center;verticalAlign=middle;whiteSpace=wrap;rounded=0;fontColor=#FFFFFF;fontSize=20;horizontal=0;fontFamily=Times New Roman;" parent="1" vertex="1">
          <mxGeometry x="522" y="1706" width="40" height="51" as="geometry" />
        </mxCell>
        <mxCell id="PrBTOdZ4H55qHyfsa1yD-96" value="Embedding" style="text;html=1;strokeColor=none;fillColor=none;align=center;verticalAlign=middle;whiteSpace=wrap;rounded=0;fontColor=#FFFFFF;fontSize=18;" parent="1" vertex="1">
          <mxGeometry x="481.5" y="1817" width="121" height="37" as="geometry" />
        </mxCell>
        <mxCell id="PrBTOdZ4H55qHyfsa1yD-97" value="" style="shape=table;startSize=0;container=1;collapsible=0;childLayout=tableLayout;fontSize=16;fillColor=#000000;strokeColor=#99004D;strokeWidth=2;fontColor=#FFFFFF;" parent="1" vertex="1">
          <mxGeometry x="463" y="1968" width="174" height="39" as="geometry" />
        </mxCell>
        <mxCell id="PrBTOdZ4H55qHyfsa1yD-98" value="" style="shape=tableRow;horizontal=0;startSize=0;swimlaneHead=0;swimlaneBody=0;strokeColor=inherit;top=0;left=0;bottom=0;right=0;collapsible=0;dropTarget=0;fillColor=none;points=[[0,0.5],[1,0.5]];portConstraint=eastwest;fontSize=16;fontColor=#FFFFFF;" parent="PrBTOdZ4H55qHyfsa1yD-97" vertex="1">
          <mxGeometry width="174" height="39" as="geometry" />
        </mxCell>
        <mxCell id="PrBTOdZ4H55qHyfsa1yD-99" value="" style="shape=partialRectangle;html=1;whiteSpace=wrap;connectable=0;strokeColor=inherit;overflow=hidden;fillColor=none;top=0;left=0;bottom=0;right=0;pointerEvents=1;fontSize=18;fontColor=#FFFFFF;verticalAlign=middle;horizontal=1;" parent="PrBTOdZ4H55qHyfsa1yD-98" vertex="1">
          <mxGeometry width="58" height="39" as="geometry">
            <mxRectangle width="58" height="39" as="alternateBounds" />
          </mxGeometry>
        </mxCell>
        <mxCell id="PrBTOdZ4H55qHyfsa1yD-100" value="" style="shape=partialRectangle;html=1;whiteSpace=wrap;connectable=0;strokeColor=inherit;overflow=hidden;fillColor=none;top=0;left=0;bottom=0;right=0;pointerEvents=1;fontSize=16;fontColor=#FFFFFF;" parent="PrBTOdZ4H55qHyfsa1yD-98" vertex="1">
          <mxGeometry x="58" width="58" height="39" as="geometry">
            <mxRectangle width="58" height="39" as="alternateBounds" />
          </mxGeometry>
        </mxCell>
        <mxCell id="PrBTOdZ4H55qHyfsa1yD-101" value="" style="shape=partialRectangle;html=1;whiteSpace=wrap;connectable=0;strokeColor=inherit;overflow=hidden;fillColor=none;top=0;left=0;bottom=0;right=0;pointerEvents=1;fontSize=16;fontColor=#FFFFFF;" parent="PrBTOdZ4H55qHyfsa1yD-98" vertex="1">
          <mxGeometry x="116" width="58" height="39" as="geometry">
            <mxRectangle width="58" height="39" as="alternateBounds" />
          </mxGeometry>
        </mxCell>
        <mxCell id="PrBTOdZ4H55qHyfsa1yD-140" style="edgeStyle=orthogonalEdgeStyle;rounded=0;orthogonalLoop=1;jettySize=auto;html=1;exitX=1;exitY=0.25;exitDx=0;exitDy=0;entryX=0;entryY=0.25;entryDx=0;entryDy=0;strokeColor=#FFFFFF;strokeWidth=2;" parent="1" source="PrBTOdZ4H55qHyfsa1yD-102" target="PrBTOdZ4H55qHyfsa1yD-136" edge="1">
          <mxGeometry relative="1" as="geometry" />
        </mxCell>
        <mxCell id="PrBTOdZ4H55qHyfsa1yD-141" style="edgeStyle=orthogonalEdgeStyle;rounded=0;orthogonalLoop=1;jettySize=auto;html=1;exitX=1;exitY=0.5;exitDx=0;exitDy=0;entryX=0;entryY=0.5;entryDx=0;entryDy=0;strokeColor=#FFFFFF;strokeWidth=2;" parent="1" source="PrBTOdZ4H55qHyfsa1yD-102" target="PrBTOdZ4H55qHyfsa1yD-136" edge="1">
          <mxGeometry relative="1" as="geometry" />
        </mxCell>
        <mxCell id="PrBTOdZ4H55qHyfsa1yD-143" style="edgeStyle=orthogonalEdgeStyle;rounded=0;orthogonalLoop=1;jettySize=auto;html=1;exitX=1;exitY=0.75;exitDx=0;exitDy=0;entryX=0;entryY=0.75;entryDx=0;entryDy=0;strokeColor=#FFFFFF;strokeWidth=2;" parent="1" source="PrBTOdZ4H55qHyfsa1yD-102" target="PrBTOdZ4H55qHyfsa1yD-136" edge="1">
          <mxGeometry relative="1" as="geometry" />
        </mxCell>
        <mxCell id="MEwA-Q_oqiYRqp0OGWWu-49" style="edgeStyle=orthogonalEdgeStyle;rounded=0;orthogonalLoop=1;jettySize=auto;html=1;exitX=1;exitY=0.5;exitDx=0;exitDy=0;entryX=0.5;entryY=1;entryDx=0;entryDy=0;strokeWidth=3;strokeColor=#FFFFFF;" edge="1" parent="1" source="PrBTOdZ4H55qHyfsa1yD-102" target="MEwA-Q_oqiYRqp0OGWWu-47">
          <mxGeometry relative="1" as="geometry">
            <Array as="points">
              <mxPoint x="695" y="2032" />
              <mxPoint x="695" y="2229" />
              <mxPoint x="1110" y="2229" />
            </Array>
          </mxGeometry>
        </mxCell>
        <mxCell id="PrBTOdZ4H55qHyfsa1yD-102" value="" style="rounded=0;whiteSpace=wrap;html=1;labelBackgroundColor=none;fontColor=#FFFFFF;fillColor=none;strokeColor=#FFFFFF;strokeWidth=2;" parent="1" vertex="1">
          <mxGeometry x="438" y="1895" width="222" height="274" as="geometry" />
        </mxCell>
        <mxCell id="PrBTOdZ4H55qHyfsa1yD-103" value="" style="shape=table;startSize=0;container=1;collapsible=0;childLayout=tableLayout;fontSize=16;fillColor=#000000;strokeColor=#99004D;strokeWidth=2;fontColor=#FFFFFF;" parent="1" vertex="1">
          <mxGeometry x="462" y="1911" width="174" height="39" as="geometry" />
        </mxCell>
        <mxCell id="PrBTOdZ4H55qHyfsa1yD-104" value="" style="shape=tableRow;horizontal=0;startSize=0;swimlaneHead=0;swimlaneBody=0;strokeColor=inherit;top=0;left=0;bottom=0;right=0;collapsible=0;dropTarget=0;fillColor=none;points=[[0,0.5],[1,0.5]];portConstraint=eastwest;fontSize=16;fontColor=#FFFFFF;" parent="PrBTOdZ4H55qHyfsa1yD-103" vertex="1">
          <mxGeometry width="174" height="39" as="geometry" />
        </mxCell>
        <mxCell id="PrBTOdZ4H55qHyfsa1yD-105" value="" style="shape=partialRectangle;html=1;whiteSpace=wrap;connectable=0;strokeColor=inherit;overflow=hidden;fillColor=none;top=0;left=0;bottom=0;right=0;pointerEvents=1;fontSize=18;fontColor=#FFFFFF;verticalAlign=middle;horizontal=1;" parent="PrBTOdZ4H55qHyfsa1yD-104" vertex="1">
          <mxGeometry width="58" height="39" as="geometry">
            <mxRectangle width="58" height="39" as="alternateBounds" />
          </mxGeometry>
        </mxCell>
        <mxCell id="PrBTOdZ4H55qHyfsa1yD-106" value="" style="shape=partialRectangle;html=1;whiteSpace=wrap;connectable=0;strokeColor=inherit;overflow=hidden;fillColor=none;top=0;left=0;bottom=0;right=0;pointerEvents=1;fontSize=16;fontColor=#FFFFFF;" parent="PrBTOdZ4H55qHyfsa1yD-104" vertex="1">
          <mxGeometry x="58" width="58" height="39" as="geometry">
            <mxRectangle width="58" height="39" as="alternateBounds" />
          </mxGeometry>
        </mxCell>
        <mxCell id="PrBTOdZ4H55qHyfsa1yD-107" value="" style="shape=partialRectangle;html=1;whiteSpace=wrap;connectable=0;strokeColor=inherit;overflow=hidden;fillColor=none;top=0;left=0;bottom=0;right=0;pointerEvents=1;fontSize=16;fontColor=#FFFFFF;" parent="PrBTOdZ4H55qHyfsa1yD-104" vertex="1">
          <mxGeometry x="116" width="58" height="39" as="geometry">
            <mxRectangle width="58" height="39" as="alternateBounds" />
          </mxGeometry>
        </mxCell>
        <mxCell id="PrBTOdZ4H55qHyfsa1yD-108" value="$$e^{u_i}$$" style="text;html=1;strokeColor=none;fillColor=none;align=center;verticalAlign=middle;whiteSpace=wrap;rounded=0;fontColor=#FFFFFF;fontSize=18;" parent="1" vertex="1">
          <mxGeometry x="462" y="1910.5" width="58" height="38.5" as="geometry" />
        </mxCell>
        <mxCell id="PrBTOdZ4H55qHyfsa1yD-109" value="$$e^{c_1}$$" style="text;html=1;strokeColor=none;fillColor=none;align=center;verticalAlign=middle;whiteSpace=wrap;rounded=0;fontColor=#FFFFFF;fontSize=18;" parent="1" vertex="1">
          <mxGeometry x="520" y="1910.5" width="58" height="38.5" as="geometry" />
        </mxCell>
        <mxCell id="PrBTOdZ4H55qHyfsa1yD-110" value="$$e^{t_1}$$" style="text;html=1;strokeColor=none;fillColor=none;align=center;verticalAlign=middle;whiteSpace=wrap;rounded=0;fontColor=#FFFFFF;fontSize=18;" parent="1" vertex="1">
          <mxGeometry x="578" y="1910.5" width="58" height="38.5" as="geometry" />
        </mxCell>
        <mxCell id="PrBTOdZ4H55qHyfsa1yD-111" value="$$e^{u_i}$$" style="text;html=1;strokeColor=none;fillColor=none;align=center;verticalAlign=middle;whiteSpace=wrap;rounded=0;fontColor=#FFFFFF;fontSize=18;" parent="1" vertex="1">
          <mxGeometry x="463" y="1969.5" width="58" height="38.5" as="geometry" />
        </mxCell>
        <mxCell id="PrBTOdZ4H55qHyfsa1yD-112" value="$$e^{c_2}$$" style="text;html=1;strokeColor=none;fillColor=none;align=center;verticalAlign=middle;whiteSpace=wrap;rounded=0;fontColor=#FFFFFF;fontSize=18;" parent="1" vertex="1">
          <mxGeometry x="521" y="1969.5" width="58" height="38.5" as="geometry" />
        </mxCell>
        <mxCell id="PrBTOdZ4H55qHyfsa1yD-113" value="$$e^{t_2}$$" style="text;html=1;strokeColor=none;fillColor=none;align=center;verticalAlign=middle;whiteSpace=wrap;rounded=0;fontColor=#FFFFFF;fontSize=18;" parent="1" vertex="1">
          <mxGeometry x="580" y="1969.5" width="58" height="38.5" as="geometry" />
        </mxCell>
        <mxCell id="PrBTOdZ4H55qHyfsa1yD-114" value="" style="shape=table;startSize=0;container=1;collapsible=0;childLayout=tableLayout;fontSize=16;fillColor=#000000;strokeColor=#99004D;strokeWidth=2;fontColor=#FFFFFF;" parent="1" vertex="1">
          <mxGeometry x="464" y="2028" width="174" height="39" as="geometry" />
        </mxCell>
        <mxCell id="PrBTOdZ4H55qHyfsa1yD-115" value="" style="shape=tableRow;horizontal=0;startSize=0;swimlaneHead=0;swimlaneBody=0;strokeColor=inherit;top=0;left=0;bottom=0;right=0;collapsible=0;dropTarget=0;fillColor=none;points=[[0,0.5],[1,0.5]];portConstraint=eastwest;fontSize=16;fontColor=#FFFFFF;" parent="PrBTOdZ4H55qHyfsa1yD-114" vertex="1">
          <mxGeometry width="174" height="39" as="geometry" />
        </mxCell>
        <mxCell id="PrBTOdZ4H55qHyfsa1yD-116" value="" style="shape=partialRectangle;html=1;whiteSpace=wrap;connectable=0;strokeColor=inherit;overflow=hidden;fillColor=none;top=0;left=0;bottom=0;right=0;pointerEvents=1;fontSize=18;fontColor=#FFFFFF;verticalAlign=middle;horizontal=1;" parent="PrBTOdZ4H55qHyfsa1yD-115" vertex="1">
          <mxGeometry width="58" height="39" as="geometry">
            <mxRectangle width="58" height="39" as="alternateBounds" />
          </mxGeometry>
        </mxCell>
        <mxCell id="PrBTOdZ4H55qHyfsa1yD-117" value="" style="shape=partialRectangle;html=1;whiteSpace=wrap;connectable=0;strokeColor=inherit;overflow=hidden;fillColor=none;top=0;left=0;bottom=0;right=0;pointerEvents=1;fontSize=16;fontColor=#FFFFFF;" parent="PrBTOdZ4H55qHyfsa1yD-115" vertex="1">
          <mxGeometry x="58" width="58" height="39" as="geometry">
            <mxRectangle width="58" height="39" as="alternateBounds" />
          </mxGeometry>
        </mxCell>
        <mxCell id="PrBTOdZ4H55qHyfsa1yD-118" value="" style="shape=partialRectangle;html=1;whiteSpace=wrap;connectable=0;strokeColor=inherit;overflow=hidden;fillColor=none;top=0;left=0;bottom=0;right=0;pointerEvents=1;fontSize=16;fontColor=#FFFFFF;" parent="PrBTOdZ4H55qHyfsa1yD-115" vertex="1">
          <mxGeometry x="116" width="58" height="39" as="geometry">
            <mxRectangle width="58" height="39" as="alternateBounds" />
          </mxGeometry>
        </mxCell>
        <mxCell id="PrBTOdZ4H55qHyfsa1yD-119" value="$$e^{u_i}$$" style="text;html=1;strokeColor=none;fillColor=none;align=center;verticalAlign=middle;whiteSpace=wrap;rounded=0;fontColor=#FFFFFF;fontSize=18;" parent="1" vertex="1">
          <mxGeometry x="464" y="2027.5" width="58" height="38.5" as="geometry" />
        </mxCell>
        <mxCell id="PrBTOdZ4H55qHyfsa1yD-120" value="$$e^{c_3}$$" style="text;html=1;strokeColor=none;fillColor=none;align=center;verticalAlign=middle;whiteSpace=wrap;rounded=0;fontColor=#FFFFFF;fontSize=18;" parent="1" vertex="1">
          <mxGeometry x="522" y="2027.5" width="58" height="38.5" as="geometry" />
        </mxCell>
        <mxCell id="PrBTOdZ4H55qHyfsa1yD-121" value="$$e^{t_3}$$" style="text;html=1;strokeColor=none;fillColor=none;align=center;verticalAlign=middle;whiteSpace=wrap;rounded=0;fontColor=#FFFFFF;fontSize=18;" parent="1" vertex="1">
          <mxGeometry x="580" y="2027.5" width="58" height="38.5" as="geometry" />
        </mxCell>
        <mxCell id="PrBTOdZ4H55qHyfsa1yD-122" value="" style="shape=table;startSize=0;container=1;collapsible=0;childLayout=tableLayout;fontSize=16;fillColor=#000000;strokeColor=#99004D;strokeWidth=2;fontColor=#FFFFFF;" parent="1" vertex="1">
          <mxGeometry x="466" y="2117" width="174" height="39" as="geometry" />
        </mxCell>
        <mxCell id="PrBTOdZ4H55qHyfsa1yD-123" value="" style="shape=tableRow;horizontal=0;startSize=0;swimlaneHead=0;swimlaneBody=0;strokeColor=inherit;top=0;left=0;bottom=0;right=0;collapsible=0;dropTarget=0;fillColor=none;points=[[0,0.5],[1,0.5]];portConstraint=eastwest;fontSize=16;fontColor=#FFFFFF;" parent="PrBTOdZ4H55qHyfsa1yD-122" vertex="1">
          <mxGeometry width="174" height="39" as="geometry" />
        </mxCell>
        <mxCell id="PrBTOdZ4H55qHyfsa1yD-124" value="" style="shape=partialRectangle;html=1;whiteSpace=wrap;connectable=0;strokeColor=inherit;overflow=hidden;fillColor=none;top=0;left=0;bottom=0;right=0;pointerEvents=1;fontSize=18;fontColor=#FFFFFF;verticalAlign=middle;horizontal=1;" parent="PrBTOdZ4H55qHyfsa1yD-123" vertex="1">
          <mxGeometry width="58" height="39" as="geometry">
            <mxRectangle width="58" height="39" as="alternateBounds" />
          </mxGeometry>
        </mxCell>
        <mxCell id="PrBTOdZ4H55qHyfsa1yD-125" value="" style="shape=partialRectangle;html=1;whiteSpace=wrap;connectable=0;strokeColor=inherit;overflow=hidden;fillColor=none;top=0;left=0;bottom=0;right=0;pointerEvents=1;fontSize=16;fontColor=#FFFFFF;" parent="PrBTOdZ4H55qHyfsa1yD-123" vertex="1">
          <mxGeometry x="58" width="58" height="39" as="geometry">
            <mxRectangle width="58" height="39" as="alternateBounds" />
          </mxGeometry>
        </mxCell>
        <mxCell id="PrBTOdZ4H55qHyfsa1yD-126" value="" style="shape=partialRectangle;html=1;whiteSpace=wrap;connectable=0;strokeColor=inherit;overflow=hidden;fillColor=none;top=0;left=0;bottom=0;right=0;pointerEvents=1;fontSize=16;fontColor=#FFFFFF;" parent="PrBTOdZ4H55qHyfsa1yD-123" vertex="1">
          <mxGeometry x="116" width="58" height="39" as="geometry">
            <mxRectangle width="58" height="39" as="alternateBounds" />
          </mxGeometry>
        </mxCell>
        <mxCell id="PrBTOdZ4H55qHyfsa1yD-127" value="$$e^{u_i}$$" style="text;html=1;strokeColor=none;fillColor=none;align=center;verticalAlign=middle;whiteSpace=wrap;rounded=0;fontColor=#FFFFFF;fontSize=18;" parent="1" vertex="1">
          <mxGeometry x="466" y="2116.5" width="58" height="38.5" as="geometry" />
        </mxCell>
        <mxCell id="PrBTOdZ4H55qHyfsa1yD-128" value="$$e^{c_n}$$" style="text;html=1;strokeColor=none;fillColor=none;align=center;verticalAlign=middle;whiteSpace=wrap;rounded=0;fontColor=#FFFFFF;fontSize=18;" parent="1" vertex="1">
          <mxGeometry x="524" y="2116.5" width="58" height="38.5" as="geometry" />
        </mxCell>
        <mxCell id="PrBTOdZ4H55qHyfsa1yD-129" value="$$e^{t_n}$$" style="text;html=1;strokeColor=none;fillColor=none;align=center;verticalAlign=middle;whiteSpace=wrap;rounded=0;fontColor=#FFFFFF;fontSize=18;" parent="1" vertex="1">
          <mxGeometry x="582" y="2116.5" width="58" height="38.5" as="geometry" />
        </mxCell>
        <mxCell id="PrBTOdZ4H55qHyfsa1yD-130" value="..." style="text;html=1;strokeColor=none;fillColor=none;align=center;verticalAlign=middle;whiteSpace=wrap;rounded=0;fontColor=#FFFFFF;fontSize=20;horizontal=0;fontFamily=Times New Roman;" parent="1" vertex="1">
          <mxGeometry x="522" y="2067" width="40" height="51" as="geometry" />
        </mxCell>
        <mxCell id="PrBTOdZ4H55qHyfsa1yD-131" value="Embedding" style="text;html=1;strokeColor=none;fillColor=none;align=center;verticalAlign=middle;whiteSpace=wrap;rounded=0;fontColor=#FFFFFF;fontSize=18;" parent="1" vertex="1">
          <mxGeometry x="481.5" y="2178" width="121" height="37" as="geometry" />
        </mxCell>
        <mxCell id="PrBTOdZ4H55qHyfsa1yD-186" style="edgeStyle=orthogonalEdgeStyle;rounded=0;orthogonalLoop=1;jettySize=auto;html=1;exitX=1;exitY=0.25;exitDx=0;exitDy=0;entryX=0;entryY=0.25;entryDx=0;entryDy=0;strokeColor=#FFFFFF;strokeWidth=2;" parent="1" source="PrBTOdZ4H55qHyfsa1yD-135" target="PrBTOdZ4H55qHyfsa1yD-164" edge="1">
          <mxGeometry relative="1" as="geometry" />
        </mxCell>
        <mxCell id="PrBTOdZ4H55qHyfsa1yD-190" style="rounded=0;orthogonalLoop=1;jettySize=auto;html=1;exitX=1;exitY=0.5;exitDx=0;exitDy=0;entryX=0;entryY=0.5;entryDx=0;entryDy=0;strokeColor=#FFFFFF;strokeWidth=2;dashed=1;" parent="1" source="PrBTOdZ4H55qHyfsa1yD-135" target="PrBTOdZ4H55qHyfsa1yD-175" edge="1">
          <mxGeometry relative="1" as="geometry" />
        </mxCell>
        <mxCell id="PrBTOdZ4H55qHyfsa1yD-191" style="rounded=0;orthogonalLoop=1;jettySize=auto;html=1;exitX=1;exitY=0.75;exitDx=0;exitDy=0;entryX=0;entryY=0.5;entryDx=0;entryDy=0;strokeColor=#FFFFFF;strokeWidth=2;dashed=1;" parent="1" source="PrBTOdZ4H55qHyfsa1yD-135" target="PrBTOdZ4H55qHyfsa1yD-175" edge="1">
          <mxGeometry relative="1" as="geometry" />
        </mxCell>
        <mxCell id="PrBTOdZ4H55qHyfsa1yD-135" value="" style="rounded=0;whiteSpace=wrap;html=1;labelBackgroundColor=none;fontColor=#FFFFFF;fillColor=none;strokeColor=#FFFFFF;strokeWidth=2;" parent="1" vertex="1">
          <mxGeometry x="746" y="1535" width="85" height="274" as="geometry" />
        </mxCell>
        <mxCell id="PrBTOdZ4H55qHyfsa1yD-189" style="edgeStyle=orthogonalEdgeStyle;rounded=0;orthogonalLoop=1;jettySize=auto;html=1;exitX=1;exitY=0.75;exitDx=0;exitDy=0;entryX=0;entryY=0.75;entryDx=0;entryDy=0;strokeColor=#FFFFFF;strokeWidth=2;" parent="1" source="PrBTOdZ4H55qHyfsa1yD-136" target="PrBTOdZ4H55qHyfsa1yD-175" edge="1">
          <mxGeometry relative="1" as="geometry" />
        </mxCell>
        <mxCell id="PrBTOdZ4H55qHyfsa1yD-192" style="rounded=0;orthogonalLoop=1;jettySize=auto;html=1;exitX=1;exitY=0.5;exitDx=0;exitDy=0;entryX=0;entryY=0.5;entryDx=0;entryDy=0;strokeColor=#FFFFFF;strokeWidth=2;dashed=1;" parent="1" source="PrBTOdZ4H55qHyfsa1yD-136" target="PrBTOdZ4H55qHyfsa1yD-164" edge="1">
          <mxGeometry relative="1" as="geometry" />
        </mxCell>
        <mxCell id="PrBTOdZ4H55qHyfsa1yD-194" style="rounded=0;orthogonalLoop=1;jettySize=auto;html=1;exitX=1;exitY=0.25;exitDx=0;exitDy=0;entryX=0;entryY=0.5;entryDx=0;entryDy=0;strokeColor=#FFFFFF;strokeWidth=2;dashed=1;" parent="1" source="PrBTOdZ4H55qHyfsa1yD-136" target="PrBTOdZ4H55qHyfsa1yD-164" edge="1">
          <mxGeometry relative="1" as="geometry" />
        </mxCell>
        <mxCell id="PrBTOdZ4H55qHyfsa1yD-136" value="" style="rounded=0;whiteSpace=wrap;html=1;labelBackgroundColor=none;fontColor=#FFFFFF;fillColor=none;strokeColor=#FFFFFF;strokeWidth=2;" parent="1" vertex="1">
          <mxGeometry x="746" y="1895" width="85" height="274" as="geometry" />
        </mxCell>
        <mxCell id="PrBTOdZ4H55qHyfsa1yD-144" value="" style="rounded=0;whiteSpace=wrap;html=1;fillColor=#000000;strokeColor=#004C99;strokeWidth=2;" parent="1" vertex="1">
          <mxGeometry x="763" y="1547.5" width="44" height="44" as="geometry" />
        </mxCell>
        <mxCell id="PrBTOdZ4H55qHyfsa1yD-145" value="$$A^P_1$$" style="text;html=1;strokeColor=none;fillColor=none;align=center;verticalAlign=middle;whiteSpace=wrap;rounded=0;fontColor=#FFFFFF;fontSize=16;" parent="1" vertex="1">
          <mxGeometry x="763" y="1547.5" width="44" height="44" as="geometry" />
        </mxCell>
        <mxCell id="PrBTOdZ4H55qHyfsa1yD-146" value="" style="rounded=0;whiteSpace=wrap;html=1;fillColor=#000000;strokeColor=#004C99;strokeWidth=2;" parent="1" vertex="1">
          <mxGeometry x="763" y="1604.5" width="44" height="44" as="geometry" />
        </mxCell>
        <mxCell id="PrBTOdZ4H55qHyfsa1yD-147" value="$$A^P_2$$" style="text;html=1;strokeColor=none;fillColor=none;align=center;verticalAlign=middle;whiteSpace=wrap;rounded=0;fontColor=#FFFFFF;fontSize=16;" parent="1" vertex="1">
          <mxGeometry x="763" y="1602" width="44" height="44" as="geometry" />
        </mxCell>
        <mxCell id="PrBTOdZ4H55qHyfsa1yD-148" value="" style="rounded=0;whiteSpace=wrap;html=1;fillColor=#000000;strokeColor=#004C99;strokeWidth=2;" parent="1" vertex="1">
          <mxGeometry x="763" y="1664" width="44" height="44" as="geometry" />
        </mxCell>
        <mxCell id="PrBTOdZ4H55qHyfsa1yD-149" value="$$A^P_3$$" style="text;html=1;strokeColor=none;fillColor=none;align=center;verticalAlign=middle;whiteSpace=wrap;rounded=0;fontColor=#FFFFFF;fontSize=16;" parent="1" vertex="1">
          <mxGeometry x="763" y="1664" width="44" height="44" as="geometry" />
        </mxCell>
        <mxCell id="PrBTOdZ4H55qHyfsa1yD-150" value="" style="rounded=0;whiteSpace=wrap;html=1;fillColor=#000000;strokeColor=#004C99;strokeWidth=2;" parent="1" vertex="1">
          <mxGeometry x="763" y="1752.75" width="44" height="44" as="geometry" />
        </mxCell>
        <mxCell id="PrBTOdZ4H55qHyfsa1yD-151" value="$$A^P_n$$" style="text;html=1;strokeColor=none;fillColor=none;align=center;verticalAlign=middle;whiteSpace=wrap;rounded=0;fontColor=#FFFFFF;fontSize=16;" parent="1" vertex="1">
          <mxGeometry x="763" y="1752.75" width="44" height="44" as="geometry" />
        </mxCell>
        <mxCell id="PrBTOdZ4H55qHyfsa1yD-152" value="..." style="text;html=1;strokeColor=none;fillColor=none;align=center;verticalAlign=middle;whiteSpace=wrap;rounded=0;fontColor=#FFFFFF;fontSize=20;horizontal=0;fontFamily=Times New Roman;" parent="1" vertex="1">
          <mxGeometry x="758" y="1704.5" width="40" height="51" as="geometry" />
        </mxCell>
        <mxCell id="PrBTOdZ4H55qHyfsa1yD-154" value="$$A^C_1$$" style="text;html=1;strokeColor=#004C99;fillColor=none;align=center;verticalAlign=middle;whiteSpace=wrap;rounded=0;fontColor=#FFFFFF;fontSize=16;labelBorderColor=none;strokeWidth=2;" parent="1" vertex="1">
          <mxGeometry x="766" y="1908.5" width="44" height="44" as="geometry" />
        </mxCell>
        <mxCell id="PrBTOdZ4H55qHyfsa1yD-155" value="$$A^C_2$$" style="text;html=1;strokeColor=#004C99;fillColor=none;align=center;verticalAlign=middle;whiteSpace=wrap;rounded=0;fontColor=#FFFFFF;fontSize=16;strokeWidth=2;" parent="1" vertex="1">
          <mxGeometry x="766" y="1963" width="44" height="44" as="geometry" />
        </mxCell>
        <mxCell id="PrBTOdZ4H55qHyfsa1yD-156" value="$$A^C_3$$" style="text;html=1;strokeColor=#004C99;fillColor=none;align=center;verticalAlign=middle;whiteSpace=wrap;rounded=0;fontColor=#FFFFFF;fontSize=16;strokeWidth=2;" parent="1" vertex="1">
          <mxGeometry x="766" y="2025" width="44" height="44" as="geometry" />
        </mxCell>
        <mxCell id="PrBTOdZ4H55qHyfsa1yD-157" value="$$A^C_n$$" style="text;html=1;strokeColor=#004C99;fillColor=none;align=center;verticalAlign=middle;whiteSpace=wrap;rounded=0;fontColor=#FFFFFF;fontSize=16;strokeWidth=2;" parent="1" vertex="1">
          <mxGeometry x="766" y="2113.75" width="44" height="44" as="geometry" />
        </mxCell>
        <mxCell id="PrBTOdZ4H55qHyfsa1yD-158" value="..." style="text;html=1;strokeColor=none;fillColor=none;align=center;verticalAlign=middle;whiteSpace=wrap;rounded=0;fontColor=#FFFFFF;fontSize=20;horizontal=0;fontFamily=Times New Roman;" parent="1" vertex="1">
          <mxGeometry x="761" y="2065.5" width="40" height="51" as="geometry" />
        </mxCell>
        <mxCell id="PrBTOdZ4H55qHyfsa1yD-159" value="Auto-Correlation" style="text;html=1;strokeColor=none;fillColor=none;align=center;verticalAlign=middle;whiteSpace=wrap;rounded=0;fontColor=#FFFFFF;fontSize=18;" parent="1" vertex="1">
          <mxGeometry x="705.75" y="1817" width="158.5" height="37" as="geometry" />
        </mxCell>
        <mxCell id="PrBTOdZ4H55qHyfsa1yD-160" value="Auto-Correlation" style="text;html=1;strokeColor=none;fillColor=none;align=center;verticalAlign=middle;whiteSpace=wrap;rounded=0;fontColor=#FFFFFF;fontSize=18;" parent="1" vertex="1">
          <mxGeometry x="709.25" y="2178" width="158.5" height="37" as="geometry" />
        </mxCell>
        <mxCell id="PrBTOdZ4H55qHyfsa1yD-15" value="Category Sequence&lt;br style=&quot;font-size: 18px;&quot;&gt;$$C_u$$&amp;nbsp;" style="text;html=1;strokeColor=none;fillColor=none;align=center;verticalAlign=middle;whiteSpace=wrap;rounded=0;fontColor=#FFFFFF;fontSize=18;" parent="1" vertex="1">
          <mxGeometry x="183" y="2179" width="224" height="98" as="geometry" />
        </mxCell>
        <mxCell id="MEwA-Q_oqiYRqp0OGWWu-32" style="edgeStyle=orthogonalEdgeStyle;rounded=0;orthogonalLoop=1;jettySize=auto;html=1;exitX=1;exitY=0.5;exitDx=0;exitDy=0;entryX=0;entryY=0.5;entryDx=0;entryDy=0;strokeWidth=2;strokeColor=#FFFFFF;" edge="1" parent="1" source="MEwA-Q_oqiYRqp0OGWWu-39" target="MEwA-Q_oqiYRqp0OGWWu-4">
          <mxGeometry relative="1" as="geometry" />
        </mxCell>
        <mxCell id="PrBTOdZ4H55qHyfsa1yD-164" value="" style="rounded=0;whiteSpace=wrap;html=1;labelBackgroundColor=none;fontColor=#FFFFFF;fillColor=none;strokeColor=#FFFFFF;strokeWidth=2;" parent="1" vertex="1">
          <mxGeometry x="955" y="1535" width="85" height="274" as="geometry" />
        </mxCell>
        <mxCell id="PrBTOdZ4H55qHyfsa1yD-166" value="$$M^P_1$$" style="text;html=1;strokeColor=#004C99;fillColor=none;align=center;verticalAlign=middle;whiteSpace=wrap;rounded=0;fontColor=#FFFFFF;fontSize=16;strokeWidth=2;" parent="1" vertex="1">
          <mxGeometry x="972" y="1547.5" width="44" height="44" as="geometry" />
        </mxCell>
        <mxCell id="PrBTOdZ4H55qHyfsa1yD-168" value="$$M^P_2$$" style="text;html=1;strokeColor=#004C99;fillColor=none;align=center;verticalAlign=middle;whiteSpace=wrap;rounded=0;fontColor=#FFFFFF;fontSize=16;strokeWidth=2;" parent="1" vertex="1">
          <mxGeometry x="972.5" y="1605.75" width="44" height="44" as="geometry" />
        </mxCell>
        <mxCell id="PrBTOdZ4H55qHyfsa1yD-170" value="$$M^P_3$$" style="text;html=1;strokeColor=#004C99;fillColor=none;align=center;verticalAlign=middle;whiteSpace=wrap;rounded=0;fontColor=#FFFFFF;fontSize=16;strokeWidth=2;" parent="1" vertex="1">
          <mxGeometry x="972" y="1664" width="44" height="44" as="geometry" />
        </mxCell>
        <mxCell id="PrBTOdZ4H55qHyfsa1yD-172" value="$$M^P_n$$" style="text;html=1;strokeColor=#004C99;fillColor=none;align=center;verticalAlign=middle;whiteSpace=wrap;rounded=0;fontColor=#FFFFFF;fontSize=16;strokeWidth=2;" parent="1" vertex="1">
          <mxGeometry x="972" y="1752.75" width="44" height="44" as="geometry" />
        </mxCell>
        <mxCell id="PrBTOdZ4H55qHyfsa1yD-173" value="..." style="text;html=1;strokeColor=none;fillColor=none;align=center;verticalAlign=middle;whiteSpace=wrap;rounded=0;fontColor=#FFFFFF;fontSize=20;horizontal=0;fontFamily=Times New Roman;" parent="1" vertex="1">
          <mxGeometry x="967" y="1704.5" width="40" height="51" as="geometry" />
        </mxCell>
        <mxCell id="PrBTOdZ4H55qHyfsa1yD-174" value="Cross-Modal&lt;br&gt;Auto-Correlation" style="text;html=1;strokeColor=none;fillColor=none;align=center;verticalAlign=middle;whiteSpace=wrap;rounded=0;fontColor=#FFFFFF;fontSize=18;" parent="1" vertex="1">
          <mxGeometry x="918.25" y="1819" width="158.5" height="37" as="geometry" />
        </mxCell>
        <mxCell id="MEwA-Q_oqiYRqp0OGWWu-34" style="edgeStyle=orthogonalEdgeStyle;rounded=0;orthogonalLoop=1;jettySize=auto;html=1;exitX=1;exitY=0.5;exitDx=0;exitDy=0;entryX=0;entryY=0.5;entryDx=0;entryDy=0;strokeWidth=2;strokeColor=#FFFFFF;" edge="1" parent="1" source="MEwA-Q_oqiYRqp0OGWWu-47" target="MEwA-Q_oqiYRqp0OGWWu-13">
          <mxGeometry relative="1" as="geometry" />
        </mxCell>
        <mxCell id="PrBTOdZ4H55qHyfsa1yD-175" value="" style="rounded=0;whiteSpace=wrap;html=1;labelBackgroundColor=none;fontColor=#FFFFFF;fillColor=none;strokeColor=#FFFFFF;strokeWidth=2;" parent="1" vertex="1">
          <mxGeometry x="961" y="1895" width="85" height="274" as="geometry" />
        </mxCell>
        <mxCell id="PrBTOdZ4H55qHyfsa1yD-177" value="$$M^C_1$$" style="text;html=1;strokeColor=#004C99;fillColor=none;align=center;verticalAlign=middle;whiteSpace=wrap;rounded=0;fontColor=#FFFFFF;fontSize=16;strokeWidth=2;" parent="1" vertex="1">
          <mxGeometry x="978" y="1907.5" width="44" height="44" as="geometry" />
        </mxCell>
        <mxCell id="PrBTOdZ4H55qHyfsa1yD-179" value="$$M^C_2$$" style="text;html=1;strokeColor=#004C99;fillColor=none;align=center;verticalAlign=middle;whiteSpace=wrap;rounded=0;fontColor=#FFFFFF;fontSize=16;strokeWidth=2;" parent="1" vertex="1">
          <mxGeometry x="978" y="1962" width="44" height="44" as="geometry" />
        </mxCell>
        <mxCell id="PrBTOdZ4H55qHyfsa1yD-181" value="$$M^C_3$$" style="text;html=1;strokeColor=#004C99;fillColor=none;align=center;verticalAlign=middle;whiteSpace=wrap;rounded=0;fontColor=#FFFFFF;fontSize=16;strokeWidth=2;" parent="1" vertex="1">
          <mxGeometry x="978" y="2024" width="44" height="44" as="geometry" />
        </mxCell>
        <mxCell id="PrBTOdZ4H55qHyfsa1yD-183" value="$$M^C_n$$" style="text;html=1;strokeColor=#004C99;fillColor=none;align=center;verticalAlign=middle;whiteSpace=wrap;rounded=0;fontColor=#FFFFFF;fontSize=16;strokeWidth=2;" parent="1" vertex="1">
          <mxGeometry x="978" y="2112.75" width="44" height="44" as="geometry" />
        </mxCell>
        <mxCell id="PrBTOdZ4H55qHyfsa1yD-184" value="..." style="text;html=1;strokeColor=none;fillColor=none;align=center;verticalAlign=middle;whiteSpace=wrap;rounded=0;fontColor=#FFFFFF;fontSize=20;horizontal=0;fontFamily=Times New Roman;" parent="1" vertex="1">
          <mxGeometry x="973" y="2064" width="40" height="52" as="geometry" />
        </mxCell>
        <mxCell id="PrBTOdZ4H55qHyfsa1yD-185" value="Cross-Modal&lt;br&gt;Auto-Correlation" style="text;html=1;strokeColor=none;fillColor=none;align=center;verticalAlign=middle;whiteSpace=wrap;rounded=0;fontColor=#FFFFFF;fontSize=18;" parent="1" vertex="1">
          <mxGeometry x="924.25" y="2179" width="158.5" height="37" as="geometry" />
        </mxCell>
        <mxCell id="MEwA-Q_oqiYRqp0OGWWu-173" style="edgeStyle=orthogonalEdgeStyle;rounded=0;orthogonalLoop=1;jettySize=auto;html=1;exitX=0;exitY=0.5;exitDx=0;exitDy=0;strokeColor=#FFFFFF;strokeWidth=2;entryX=0.984;entryY=0.803;entryDx=0;entryDy=0;entryPerimeter=0;" edge="1" parent="1" source="PrBTOdZ4H55qHyfsa1yD-198" target="PrBTOdZ4H55qHyfsa1yD-328">
          <mxGeometry relative="1" as="geometry" />
        </mxCell>
        <mxCell id="PrBTOdZ4H55qHyfsa1yD-198" value="&lt;font style=&quot;font-size: 30px;&quot;&gt;Prediction Layer&lt;/font&gt;" style="rounded=0;whiteSpace=wrap;html=1;labelBackgroundColor=none;fontColor=#FFFFFF;fillColor=none;strokeColor=#FFFFFF;strokeWidth=2;horizontal=0;rotation=-180;verticalAlign=middle;align=center;fontSize=30;" parent="1" vertex="1">
          <mxGeometry x="2396" y="1520" width="85" height="274" as="geometry" />
        </mxCell>
        <mxCell id="MEwA-Q_oqiYRqp0OGWWu-174" style="edgeStyle=orthogonalEdgeStyle;rounded=0;orthogonalLoop=1;jettySize=auto;html=1;exitX=0;exitY=0.5;exitDx=0;exitDy=0;strokeColor=#FFFFFF;strokeWidth=2;entryX=1.008;entryY=0.209;entryDx=0;entryDy=0;entryPerimeter=0;" edge="1" parent="1" source="PrBTOdZ4H55qHyfsa1yD-199" target="PrBTOdZ4H55qHyfsa1yD-328">
          <mxGeometry relative="1" as="geometry" />
        </mxCell>
        <mxCell id="PrBTOdZ4H55qHyfsa1yD-199" value="&lt;font style=&quot;font-size: 30px;&quot;&gt;Prediction Layer&lt;/font&gt;" style="rounded=0;whiteSpace=wrap;html=1;labelBackgroundColor=none;fontColor=#FFFFFF;fillColor=none;strokeColor=#FFFFFF;strokeWidth=2;horizontal=0;rotation=-180;verticalAlign=middle;align=center;fontSize=30;" parent="1" vertex="1">
          <mxGeometry x="2396" y="1938" width="85" height="274" as="geometry" />
        </mxCell>
        <mxCell id="PrBTOdZ4H55qHyfsa1yD-203" value="Global-Level POI Representation Layer" style="text;html=1;strokeColor=none;fillColor=none;align=center;verticalAlign=middle;whiteSpace=wrap;rounded=0;fontColor=#FFFFFF;fontSize=22;" parent="1" vertex="1">
          <mxGeometry x="598" y="358" width="477" height="30" as="geometry" />
        </mxCell>
        <mxCell id="MEwA-Q_oqiYRqp0OGWWu-93" style="rounded=0;orthogonalLoop=1;jettySize=auto;html=1;exitX=1;exitY=1;exitDx=0;exitDy=0;entryX=0.336;entryY=0.098;entryDx=0;entryDy=0;strokeWidth=2;strokeColor=#FFFFFF;endArrow=none;endFill=0;entryPerimeter=0;" edge="1" parent="1" source="PrBTOdZ4H55qHyfsa1yD-226" target="MEwA-Q_oqiYRqp0OGWWu-84">
          <mxGeometry relative="1" as="geometry" />
        </mxCell>
        <mxCell id="PrBTOdZ4H55qHyfsa1yD-226" value="" style="ellipse;whiteSpace=wrap;html=1;aspect=fixed;fillColor=#994C00;" parent="1" vertex="1">
          <mxGeometry x="281" y="521" width="35" height="35" as="geometry" />
        </mxCell>
        <mxCell id="PrBTOdZ4H55qHyfsa1yD-287" value="&lt;font style=&quot;font-size: 20px;&quot; color=&quot;#ffffff&quot;&gt;Hypergraph Convolution Network&lt;/font&gt;" style="rounded=0;whiteSpace=wrap;html=1;fillColor=none;strokeColor=#FFFFFF;strokeWidth=2;" parent="1" vertex="1">
          <mxGeometry x="868.75" y="630.44" width="138.25" height="300.13" as="geometry" />
        </mxCell>
        <mxCell id="PrBTOdZ4H55qHyfsa1yD-291" value="" style="rounded=0;whiteSpace=wrap;html=1;fillColor=#3399FF;strokeColor=#FFFFFF;strokeWidth=2;" parent="1" vertex="1">
          <mxGeometry x="1234" y="764.13" width="33" height="33" as="geometry" />
        </mxCell>
        <mxCell id="PrBTOdZ4H55qHyfsa1yD-292" value="" style="rounded=0;whiteSpace=wrap;html=1;fillColor=#007FFF;strokeColor=#FFFFFF;strokeWidth=2;" parent="1" vertex="1">
          <mxGeometry x="1267" y="764.13" width="33" height="33" as="geometry" />
        </mxCell>
        <mxCell id="PrBTOdZ4H55qHyfsa1yD-293" value="" style="rounded=0;whiteSpace=wrap;html=1;fillColor=#004C99;strokeColor=#FFFFFF;strokeWidth=2;" parent="1" vertex="1">
          <mxGeometry x="1300" y="764.13" width="33" height="33" as="geometry" />
        </mxCell>
        <mxCell id="PrBTOdZ4H55qHyfsa1yD-294" value="" style="rounded=0;whiteSpace=wrap;html=1;fillColor=#FF8000;strokeColor=#FFFFFF;strokeWidth=2;" parent="1" vertex="1">
          <mxGeometry x="1235" y="805.88" width="33" height="33" as="geometry" />
        </mxCell>
        <mxCell id="PrBTOdZ4H55qHyfsa1yD-295" value="" style="rounded=0;whiteSpace=wrap;html=1;fillColor=#CC6600;strokeColor=#FFFFFF;strokeWidth=2;" parent="1" vertex="1">
          <mxGeometry x="1268" y="805.88" width="33" height="33" as="geometry" />
        </mxCell>
        <mxCell id="PrBTOdZ4H55qHyfsa1yD-296" value="" style="rounded=0;whiteSpace=wrap;html=1;fillColor=#994C00;strokeColor=#FFFFFF;strokeWidth=2;" parent="1" vertex="1">
          <mxGeometry x="1301.25" y="805.88" width="33" height="33" as="geometry" />
        </mxCell>
        <mxCell id="PrBTOdZ4H55qHyfsa1yD-297" value="" style="rounded=0;whiteSpace=wrap;html=1;fillColor=#FF3399;strokeColor=#FFFFFF;strokeWidth=2;" parent="1" vertex="1">
          <mxGeometry x="1235" y="848.88" width="33" height="33" as="geometry" />
        </mxCell>
        <mxCell id="PrBTOdZ4H55qHyfsa1yD-298" value="" style="rounded=0;whiteSpace=wrap;html=1;fillColor=#FF0080;strokeColor=#FFFFFF;strokeWidth=2;" parent="1" vertex="1">
          <mxGeometry x="1268" y="848.88" width="33" height="33" as="geometry" />
        </mxCell>
        <mxCell id="PrBTOdZ4H55qHyfsa1yD-299" value="" style="rounded=0;whiteSpace=wrap;html=1;fillColor=#CC0066;strokeColor=#FFFFFF;strokeWidth=2;" parent="1" vertex="1">
          <mxGeometry x="1301" y="848.88" width="33" height="33" as="geometry" />
        </mxCell>
        <mxCell id="PrBTOdZ4H55qHyfsa1yD-303" value="" style="shape=singleArrow;whiteSpace=wrap;html=1;arrowWidth=0.4555555555555524;arrowSize=0.2718676122931441;fillColor=none;strokeColor=#FFFFFF;strokeWidth=2;" parent="1" vertex="1">
          <mxGeometry x="1650" y="754.25" width="60" height="46" as="geometry" />
        </mxCell>
        <mxCell id="PrBTOdZ4H55qHyfsa1yD-305" value="" style="rounded=0;whiteSpace=wrap;html=1;fillColor=#3399FF;strokeColor=#FFFFFF;strokeWidth=2;" parent="1" vertex="1">
          <mxGeometry x="1725" y="738.5" width="33" height="33" as="geometry" />
        </mxCell>
        <mxCell id="PrBTOdZ4H55qHyfsa1yD-306" value="" style="rounded=0;whiteSpace=wrap;html=1;fillColor=#007FFF;strokeColor=#FFFFFF;strokeWidth=2;" parent="1" vertex="1">
          <mxGeometry x="1758" y="738.5" width="33" height="33" as="geometry" />
        </mxCell>
        <mxCell id="PrBTOdZ4H55qHyfsa1yD-307" value="" style="rounded=0;whiteSpace=wrap;html=1;fillColor=#004C99;strokeColor=#FFFFFF;strokeWidth=2;" parent="1" vertex="1">
          <mxGeometry x="1791" y="738.5" width="33" height="33" as="geometry" />
        </mxCell>
        <mxCell id="PrBTOdZ4H55qHyfsa1yD-308" value="Layer 1" style="text;html=1;strokeColor=none;fillColor=none;align=center;verticalAlign=middle;whiteSpace=wrap;rounded=0;fontColor=#FFFFFF;fontSize=20;" parent="1" vertex="1">
          <mxGeometry x="1327" y="492" width="77" height="29" as="geometry" />
        </mxCell>
        <mxCell id="PrBTOdZ4H55qHyfsa1yD-309" value="Layer 2" style="text;html=1;strokeColor=none;fillColor=none;align=center;verticalAlign=middle;whiteSpace=wrap;rounded=0;fontColor=#FFFFFF;fontSize=20;" parent="1" vertex="1">
          <mxGeometry x="1397" y="448" width="77" height="29" as="geometry" />
        </mxCell>
        <mxCell id="PrBTOdZ4H55qHyfsa1yD-310" value="Layer K" style="text;html=1;strokeColor=none;fillColor=none;align=center;verticalAlign=middle;whiteSpace=wrap;rounded=0;fontColor=#FFFFFF;fontSize=20;" parent="1" vertex="1">
          <mxGeometry x="1465.5" y="399" width="77" height="29" as="geometry" />
        </mxCell>
        <mxCell id="PrBTOdZ4H55qHyfsa1yD-322" value="Local-Level POI Representation Layer" style="text;html=1;strokeColor=none;fillColor=none;align=center;verticalAlign=middle;whiteSpace=wrap;rounded=0;fontColor=#FFFFFF;fontSize=20;" parent="1" vertex="1">
          <mxGeometry x="549.5" y="2279" width="477" height="30" as="geometry" />
        </mxCell>
        <mxCell id="PrBTOdZ4H55qHyfsa1yD-323" value="POIs Embeddings" style="text;html=1;strokeColor=none;fillColor=none;align=center;verticalAlign=middle;whiteSpace=wrap;rounded=0;fontColor=#FFFFFF;fontSize=20;" parent="1" vertex="1">
          <mxGeometry x="1194" y="692.88" width="161" height="79" as="geometry" />
        </mxCell>
        <mxCell id="PrBTOdZ4H55qHyfsa1yD-324" value="$$l_1$$" style="text;html=1;strokeColor=none;fillColor=none;align=center;verticalAlign=middle;whiteSpace=wrap;rounded=0;fontColor=#FFFFFF;fontSize=18;" parent="1" vertex="1">
          <mxGeometry x="1199" y="762.13" width="45" height="37" as="geometry" />
        </mxCell>
        <mxCell id="PrBTOdZ4H55qHyfsa1yD-325" value="..." style="text;html=1;strokeColor=none;fillColor=none;align=center;verticalAlign=middle;whiteSpace=wrap;rounded=0;fontColor=#FFFFFF;fontSize=18;fontStyle=1;horizontal=0;" parent="1" vertex="1">
          <mxGeometry x="1191" y="803.88" width="45" height="37" as="geometry" />
        </mxCell>
        <mxCell id="PrBTOdZ4H55qHyfsa1yD-326" value="$$l_N$$" style="text;html=1;strokeColor=none;fillColor=none;align=center;verticalAlign=middle;whiteSpace=wrap;rounded=0;fontColor=#FFFFFF;fontSize=18;" parent="1" vertex="1">
          <mxGeometry x="1195.25" y="846.13" width="45" height="37" as="geometry" />
        </mxCell>
        <mxCell id="PrBTOdZ4H55qHyfsa1yD-327" value="Global POIs Embeddings" style="text;html=1;strokeColor=none;fillColor=none;align=center;verticalAlign=middle;whiteSpace=wrap;rounded=0;fontColor=#FFFFFF;fontSize=20;" parent="1" vertex="1">
          <mxGeometry x="1700.75" y="682.25" width="147.5" height="53" as="geometry" />
        </mxCell>
        <mxCell id="PrBTOdZ4H55qHyfsa1yD-328" value="&lt;font style=&quot;font-size: 50px;&quot; color=&quot;#ffffff&quot;&gt;Cross-Entropy Loss&lt;/font&gt;" style="rounded=1;whiteSpace=wrap;html=1;fillColor=none;strokeColor=#FFFFFF;strokeWidth=2;horizontal=0;rotation=-180;fontSize=50;" parent="1" vertex="1">
          <mxGeometry x="2674" y="1518" width="85" height="704.5" as="geometry" />
        </mxCell>
        <mxCell id="MEwA-Q_oqiYRqp0OGWWu-4" value="" style="rounded=0;whiteSpace=wrap;html=1;labelBackgroundColor=none;fontColor=#FFFFFF;fillColor=none;strokeColor=#FFFFFF;strokeWidth=2;" vertex="1" parent="1">
          <mxGeometry x="1179" y="1535" width="85" height="274" as="geometry" />
        </mxCell>
        <mxCell id="MEwA-Q_oqiYRqp0OGWWu-5" value="Series Decomposition" style="text;html=1;strokeColor=none;fillColor=none;align=center;verticalAlign=middle;whiteSpace=wrap;rounded=0;fontColor=#FFFFFF;fontSize=18;" vertex="1" parent="1">
          <mxGeometry x="1142.25" y="1817" width="158.5" height="37" as="geometry" />
        </mxCell>
        <mxCell id="MEwA-Q_oqiYRqp0OGWWu-6" value="$$S^P_1$$" style="text;html=1;strokeColor=#004C99;fillColor=none;align=center;verticalAlign=middle;whiteSpace=wrap;rounded=0;fontColor=#FFFFFF;fontSize=16;strokeWidth=2;" vertex="1" parent="1">
          <mxGeometry x="1199.5" y="1550" width="44" height="44" as="geometry" />
        </mxCell>
        <mxCell id="MEwA-Q_oqiYRqp0OGWWu-8" value="..." style="text;html=1;strokeColor=none;fillColor=none;align=center;verticalAlign=middle;whiteSpace=wrap;rounded=0;fontColor=#FFFFFF;fontSize=20;horizontal=0;fontFamily=Times New Roman;" vertex="1" parent="1">
          <mxGeometry x="1196" y="1707" width="40" height="51" as="geometry" />
        </mxCell>
        <mxCell id="MEwA-Q_oqiYRqp0OGWWu-9" value="$$S^P_2$$" style="text;html=1;strokeColor=#004C99;fillColor=none;align=center;verticalAlign=middle;whiteSpace=wrap;rounded=0;fontColor=#FFFFFF;fontSize=16;strokeWidth=2;" vertex="1" parent="1">
          <mxGeometry x="1199" y="1605.75" width="44" height="44" as="geometry" />
        </mxCell>
        <mxCell id="MEwA-Q_oqiYRqp0OGWWu-10" value="$$S^P_3$$" style="text;html=1;strokeColor=#004C99;fillColor=none;align=center;verticalAlign=middle;whiteSpace=wrap;rounded=0;fontColor=#FFFFFF;fontSize=16;strokeWidth=2;" vertex="1" parent="1">
          <mxGeometry x="1199.5" y="1666" width="44" height="44" as="geometry" />
        </mxCell>
        <mxCell id="MEwA-Q_oqiYRqp0OGWWu-11" value="$$S^P_n$$" style="text;html=1;strokeColor=#004C99;fillColor=none;align=center;verticalAlign=middle;whiteSpace=wrap;rounded=0;fontColor=#FFFFFF;fontSize=16;strokeWidth=2;" vertex="1" parent="1">
          <mxGeometry x="1199.5" y="1752.75" width="44" height="44" as="geometry" />
        </mxCell>
        <mxCell id="MEwA-Q_oqiYRqp0OGWWu-13" value="" style="rounded=0;whiteSpace=wrap;html=1;labelBackgroundColor=none;fontColor=#FFFFFF;fillColor=none;strokeColor=#FFFFFF;strokeWidth=2;" vertex="1" parent="1">
          <mxGeometry x="1181.5" y="1896" width="85" height="274" as="geometry" />
        </mxCell>
        <mxCell id="MEwA-Q_oqiYRqp0OGWWu-15" value="Series Decomposition" style="text;html=1;strokeColor=none;fillColor=none;align=center;verticalAlign=middle;whiteSpace=wrap;rounded=0;fontColor=#FFFFFF;fontSize=18;" vertex="1" parent="1">
          <mxGeometry x="1144.75" y="2181" width="158.5" height="37" as="geometry" />
        </mxCell>
        <mxCell id="MEwA-Q_oqiYRqp0OGWWu-16" value="..." style="text;html=1;strokeColor=none;fillColor=none;align=center;verticalAlign=middle;whiteSpace=wrap;rounded=0;fontColor=#FFFFFF;fontSize=20;horizontal=0;fontFamily=Times New Roman;" vertex="1" parent="1">
          <mxGeometry x="1201" y="2070" width="40" height="51" as="geometry" />
        </mxCell>
        <mxCell id="MEwA-Q_oqiYRqp0OGWWu-25" value="$$S^C_1$$" style="text;html=1;strokeColor=#004C99;fillColor=none;align=center;verticalAlign=middle;whiteSpace=wrap;rounded=0;fontColor=#FFFFFF;fontSize=16;strokeWidth=2;" vertex="1" parent="1">
          <mxGeometry x="1202.5" y="1911" width="44" height="44" as="geometry" />
        </mxCell>
        <mxCell id="MEwA-Q_oqiYRqp0OGWWu-26" value="$$S^C_2$$" style="text;html=1;strokeColor=#004C99;fillColor=none;align=center;verticalAlign=middle;whiteSpace=wrap;rounded=0;fontColor=#FFFFFF;fontSize=16;strokeWidth=2;" vertex="1" parent="1">
          <mxGeometry x="1201" y="1966.75" width="44" height="44" as="geometry" />
        </mxCell>
        <mxCell id="MEwA-Q_oqiYRqp0OGWWu-27" value="$$S^C_3$$" style="text;html=1;strokeColor=#004C99;fillColor=none;align=center;verticalAlign=middle;whiteSpace=wrap;rounded=0;fontColor=#FFFFFF;fontSize=16;strokeWidth=2;" vertex="1" parent="1">
          <mxGeometry x="1202.5" y="2022.5" width="44" height="44" as="geometry" />
        </mxCell>
        <mxCell id="MEwA-Q_oqiYRqp0OGWWu-28" value="$$S^C_n$$" style="text;html=1;strokeColor=#004C99;fillColor=none;align=center;verticalAlign=middle;whiteSpace=wrap;rounded=0;fontColor=#FFFFFF;fontSize=16;strokeWidth=2;" vertex="1" parent="1">
          <mxGeometry x="1201" y="2114.5" width="44" height="44" as="geometry" />
        </mxCell>
        <mxCell id="MEwA-Q_oqiYRqp0OGWWu-30" value="Layer 1" style="text;html=1;strokeColor=none;fillColor=none;align=center;verticalAlign=middle;whiteSpace=wrap;rounded=0;fontColor=#FFFFFF;fontSize=18;" vertex="1" parent="1">
          <mxGeometry x="1234.5" y="1495" width="77" height="29" as="geometry" />
        </mxCell>
        <mxCell id="MEwA-Q_oqiYRqp0OGWWu-31" value="Layer 2" style="text;html=1;strokeColor=none;fillColor=none;align=center;verticalAlign=middle;whiteSpace=wrap;rounded=0;fontColor=#FFFFFF;fontSize=18;" vertex="1" parent="1">
          <mxGeometry x="1280" y="1455" width="77" height="29" as="geometry" />
        </mxCell>
        <mxCell id="MEwA-Q_oqiYRqp0OGWWu-42" value="" style="edgeStyle=orthogonalEdgeStyle;rounded=0;orthogonalLoop=1;jettySize=auto;html=1;exitX=1;exitY=0.5;exitDx=0;exitDy=0;entryX=0;entryY=0.5;entryDx=0;entryDy=0;strokeWidth=2;strokeColor=#FFFFFF;endArrow=none;endFill=0;" edge="1" parent="1" source="PrBTOdZ4H55qHyfsa1yD-164" target="MEwA-Q_oqiYRqp0OGWWu-39">
          <mxGeometry relative="1" as="geometry">
            <mxPoint x="1040" y="1672" as="sourcePoint" />
            <mxPoint x="1179" y="1672" as="targetPoint" />
          </mxGeometry>
        </mxCell>
        <mxCell id="MEwA-Q_oqiYRqp0OGWWu-39" value="" style="shape=orEllipse;perimeter=ellipsePerimeter;whiteSpace=wrap;html=1;backgroundOutline=1;fillColor=#000000;strokeColor=#FFFFFF;strokeWidth=2;" vertex="1" parent="1">
          <mxGeometry x="1094" y="1656" width="32" height="32" as="geometry" />
        </mxCell>
        <mxCell id="MEwA-Q_oqiYRqp0OGWWu-48" value="" style="edgeStyle=orthogonalEdgeStyle;rounded=0;orthogonalLoop=1;jettySize=auto;html=1;exitX=1;exitY=0.5;exitDx=0;exitDy=0;entryX=0;entryY=0.5;entryDx=0;entryDy=0;strokeWidth=2;strokeColor=#FFFFFF;endArrow=none;endFill=0;" edge="1" parent="1" source="PrBTOdZ4H55qHyfsa1yD-175" target="MEwA-Q_oqiYRqp0OGWWu-47">
          <mxGeometry relative="1" as="geometry">
            <mxPoint x="1046" y="2032" as="sourcePoint" />
            <mxPoint x="1182" y="2033" as="targetPoint" />
          </mxGeometry>
        </mxCell>
        <mxCell id="MEwA-Q_oqiYRqp0OGWWu-47" value="" style="shape=orEllipse;perimeter=ellipsePerimeter;whiteSpace=wrap;html=1;backgroundOutline=1;fillColor=#000000;strokeColor=#FFFFFF;strokeWidth=2;" vertex="1" parent="1">
          <mxGeometry x="1094" y="2016" width="32" height="32" as="geometry" />
        </mxCell>
        <mxCell id="MEwA-Q_oqiYRqp0OGWWu-55" value="" style="curved=1;endArrow=classic;html=1;rounded=0;strokeWidth=3;strokeColor=#FFFFFF;" edge="1" parent="1">
          <mxGeometry width="50" height="50" relative="1" as="geometry">
            <mxPoint x="1264.25" y="1700" as="sourcePoint" />
            <mxPoint x="1331" y="1638" as="targetPoint" />
            <Array as="points">
              <mxPoint x="1279.25" y="1736" />
              <mxPoint x="1314.25" y="1743.5" />
              <mxPoint x="1339" y="1727.75" />
              <mxPoint x="1357" y="1684.75" />
            </Array>
          </mxGeometry>
        </mxCell>
        <mxCell id="MEwA-Q_oqiYRqp0OGWWu-56" value="" style="curved=1;endArrow=classic;html=1;rounded=0;strokeWidth=3;strokeColor=#FFFFFF;" edge="1" parent="1">
          <mxGeometry width="50" height="50" relative="1" as="geometry">
            <mxPoint x="1267.5" y="2041.25" as="sourcePoint" />
            <mxPoint x="1334.25" y="1979.25" as="targetPoint" />
            <Array as="points">
              <mxPoint x="1282.5" y="2077.25" />
              <mxPoint x="1317.5" y="2084.75" />
              <mxPoint x="1342.25" y="2069" />
              <mxPoint x="1360.25" y="2026" />
            </Array>
          </mxGeometry>
        </mxCell>
        <mxCell id="MEwA-Q_oqiYRqp0OGWWu-63" value="" style="rounded=0;whiteSpace=wrap;html=1;fillColor=#3399FF;strokeColor=#FFFFFF;strokeWidth=2;" vertex="1" parent="1">
          <mxGeometry x="2517.25" y="738.13" width="33" height="33" as="geometry" />
        </mxCell>
        <mxCell id="MEwA-Q_oqiYRqp0OGWWu-64" value="" style="rounded=0;whiteSpace=wrap;html=1;fillColor=#007FFF;strokeColor=#FFFFFF;strokeWidth=2;" vertex="1" parent="1">
          <mxGeometry x="2550.25" y="738.13" width="33" height="33" as="geometry" />
        </mxCell>
        <mxCell id="MEwA-Q_oqiYRqp0OGWWu-65" value="" style="rounded=0;whiteSpace=wrap;html=1;fillColor=#004C99;strokeColor=#FFFFFF;strokeWidth=2;" vertex="1" parent="1">
          <mxGeometry x="2583.25" y="738.13" width="33" height="33" as="geometry" />
        </mxCell>
        <mxCell id="MEwA-Q_oqiYRqp0OGWWu-66" value="LocaL POIs Embeddings" style="text;html=1;strokeColor=none;fillColor=none;align=center;verticalAlign=middle;whiteSpace=wrap;rounded=0;fontColor=#FFFFFF;fontSize=20;" vertex="1" parent="1">
          <mxGeometry x="2493" y="681.88" width="147.5" height="53" as="geometry" />
        </mxCell>
        <mxCell id="MEwA-Q_oqiYRqp0OGWWu-72" style="edgeStyle=orthogonalEdgeStyle;rounded=0;orthogonalLoop=1;jettySize=auto;html=1;exitX=0;exitY=0.5;exitDx=0;exitDy=0;entryX=1;entryY=0.5;entryDx=0;entryDy=0;strokeColor=#FFFFFF;strokeWidth=2;" edge="1" parent="1" source="MEwA-Q_oqiYRqp0OGWWu-68" target="MEwA-Q_oqiYRqp0OGWWu-70">
          <mxGeometry relative="1" as="geometry" />
        </mxCell>
        <mxCell id="MEwA-Q_oqiYRqp0OGWWu-68" value="&lt;font color=&quot;#ffffff&quot;&gt;&lt;b style=&quot;font-size: 36px;&quot;&gt;FFN&lt;/b&gt;&lt;/font&gt;" style="rounded=0;whiteSpace=wrap;html=1;fillColor=none;strokeColor=#FFFFFF;strokeWidth=2;horizontal=0;rotation=-180;" vertex="1" parent="1">
          <mxGeometry x="1535" y="1518" width="100" height="280" as="geometry" />
        </mxCell>
        <mxCell id="MEwA-Q_oqiYRqp0OGWWu-171" style="edgeStyle=orthogonalEdgeStyle;rounded=0;orthogonalLoop=1;jettySize=auto;html=1;exitX=0;exitY=0.5;exitDx=0;exitDy=0;entryX=1;entryY=0.5;entryDx=0;entryDy=0;strokeColor=#FFFFFF;strokeWidth=2;" edge="1" parent="1" source="MEwA-Q_oqiYRqp0OGWWu-70" target="PrBTOdZ4H55qHyfsa1yD-198">
          <mxGeometry relative="1" as="geometry" />
        </mxCell>
        <mxCell id="MEwA-Q_oqiYRqp0OGWWu-70" value="&lt;font color=&quot;#ffffff&quot;&gt;&lt;b style=&quot;font-size: 36px;&quot;&gt;Norm&lt;/b&gt;&lt;/font&gt;" style="rounded=0;whiteSpace=wrap;html=1;fillColor=none;strokeColor=#FFFFFF;strokeWidth=2;horizontal=0;rotation=-180;" vertex="1" parent="1">
          <mxGeometry x="1745" y="1518" width="100" height="280" as="geometry" />
        </mxCell>
        <mxCell id="MEwA-Q_oqiYRqp0OGWWu-71" value="" style="shape=orEllipse;perimeter=ellipsePerimeter;whiteSpace=wrap;html=1;backgroundOutline=1;fillColor=#000000;strokeColor=#FFFFFF;strokeWidth=2;" vertex="1" parent="1">
          <mxGeometry x="1674" y="1642" width="32" height="32" as="geometry" />
        </mxCell>
        <mxCell id="MEwA-Q_oqiYRqp0OGWWu-74" style="edgeStyle=orthogonalEdgeStyle;rounded=0;orthogonalLoop=1;jettySize=auto;html=1;exitX=0;exitY=0.5;exitDx=0;exitDy=0;entryX=1;entryY=0.5;entryDx=0;entryDy=0;strokeColor=#FFFFFF;strokeWidth=2;" edge="1" parent="1" source="MEwA-Q_oqiYRqp0OGWWu-75" target="MEwA-Q_oqiYRqp0OGWWu-76">
          <mxGeometry relative="1" as="geometry" />
        </mxCell>
        <mxCell id="MEwA-Q_oqiYRqp0OGWWu-75" value="&lt;font color=&quot;#ffffff&quot;&gt;&lt;b style=&quot;font-size: 36px;&quot;&gt;FFN&lt;/b&gt;&lt;/font&gt;" style="rounded=0;whiteSpace=wrap;html=1;fillColor=none;strokeColor=#FFFFFF;strokeWidth=2;horizontal=0;rotation=-180;" vertex="1" parent="1">
          <mxGeometry x="1539" y="1935" width="100" height="280" as="geometry" />
        </mxCell>
        <mxCell id="MEwA-Q_oqiYRqp0OGWWu-172" style="edgeStyle=orthogonalEdgeStyle;rounded=0;orthogonalLoop=1;jettySize=auto;html=1;exitX=0;exitY=0.5;exitDx=0;exitDy=0;entryX=1;entryY=0.5;entryDx=0;entryDy=0;strokeColor=#FFFFFF;strokeWidth=2;" edge="1" parent="1" source="MEwA-Q_oqiYRqp0OGWWu-76" target="PrBTOdZ4H55qHyfsa1yD-199">
          <mxGeometry relative="1" as="geometry" />
        </mxCell>
        <mxCell id="MEwA-Q_oqiYRqp0OGWWu-76" value="&lt;font color=&quot;#ffffff&quot;&gt;&lt;b style=&quot;font-size: 36px;&quot;&gt;Norm&lt;/b&gt;&lt;/font&gt;" style="rounded=0;whiteSpace=wrap;html=1;fillColor=none;strokeColor=#FFFFFF;strokeWidth=2;horizontal=0;rotation=-180;" vertex="1" parent="1">
          <mxGeometry x="1749" y="1935" width="100" height="280" as="geometry" />
        </mxCell>
        <mxCell id="MEwA-Q_oqiYRqp0OGWWu-77" value="" style="shape=orEllipse;perimeter=ellipsePerimeter;whiteSpace=wrap;html=1;backgroundOutline=1;fillColor=#000000;strokeColor=#FFFFFF;strokeWidth=2;" vertex="1" parent="1">
          <mxGeometry x="1678" y="2059" width="32" height="32" as="geometry" />
        </mxCell>
        <mxCell id="MEwA-Q_oqiYRqp0OGWWu-78" style="edgeStyle=orthogonalEdgeStyle;rounded=0;orthogonalLoop=1;jettySize=auto;html=1;exitX=1;exitY=0.25;exitDx=0;exitDy=0;entryX=0.5;entryY=1;entryDx=0;entryDy=0;strokeWidth=2;strokeColor=#FFFFFF;" edge="1" parent="1">
          <mxGeometry relative="1" as="geometry">
            <mxPoint x="1416" y="2076" as="sourcePoint" />
            <mxPoint x="1692" y="2090" as="targetPoint" />
            <Array as="points">
              <mxPoint x="1483" y="2076" />
              <mxPoint x="1483" y="2236" />
              <mxPoint x="1692" y="2236" />
            </Array>
          </mxGeometry>
        </mxCell>
        <mxCell id="MEwA-Q_oqiYRqp0OGWWu-79" style="edgeStyle=orthogonalEdgeStyle;rounded=0;orthogonalLoop=1;jettySize=auto;html=1;exitX=1;exitY=0.25;exitDx=0;exitDy=0;entryX=0;entryY=0.25;entryDx=0;entryDy=0;strokeWidth=2;strokeColor=#FFFFFF;" edge="1" parent="1">
          <mxGeometry relative="1" as="geometry">
            <mxPoint x="1418" y="2075" as="sourcePoint" />
            <mxPoint x="1539" y="2074" as="targetPoint" />
          </mxGeometry>
        </mxCell>
        <mxCell id="MEwA-Q_oqiYRqp0OGWWu-94" style="rounded=0;orthogonalLoop=1;jettySize=auto;html=1;exitX=1;exitY=0.5;exitDx=0;exitDy=0;entryX=0;entryY=1;entryDx=0;entryDy=0;strokeColor=#FFFFFF;strokeWidth=2;endArrow=none;endFill=0;" edge="1" parent="1" source="MEwA-Q_oqiYRqp0OGWWu-84" target="MEwA-Q_oqiYRqp0OGWWu-88">
          <mxGeometry relative="1" as="geometry" />
        </mxCell>
        <mxCell id="MEwA-Q_oqiYRqp0OGWWu-95" style="rounded=0;orthogonalLoop=1;jettySize=auto;html=1;exitX=0;exitY=0.75;exitDx=0;exitDy=0;entryX=1;entryY=0;entryDx=0;entryDy=0;strokeColor=#FFFFFF;strokeWidth=2;endArrow=none;endFill=0;" edge="1" parent="1" source="MEwA-Q_oqiYRqp0OGWWu-84" target="MEwA-Q_oqiYRqp0OGWWu-87">
          <mxGeometry relative="1" as="geometry" />
        </mxCell>
        <mxCell id="MEwA-Q_oqiYRqp0OGWWu-96" style="rounded=0;orthogonalLoop=1;jettySize=auto;html=1;exitX=1;exitY=0.5;exitDx=0;exitDy=0;entryX=0;entryY=1;entryDx=0;entryDy=0;strokeColor=#FFFFFF;endArrow=none;endFill=0;strokeWidth=2;" edge="1" parent="1" target="MEwA-Q_oqiYRqp0OGWWu-86">
          <mxGeometry relative="1" as="geometry">
            <mxPoint x="329.4951840891798" y="615.0029905038724" as="sourcePoint" />
            <mxPoint x="334.9956313292355" y="681.7256313292354" as="targetPoint" />
          </mxGeometry>
        </mxCell>
        <mxCell id="MEwA-Q_oqiYRqp0OGWWu-84" value="" style="triangle;whiteSpace=wrap;html=1;fillColor=none;strokeColor=#FFFFFF;strokeWidth=2;rotation=-15;" vertex="1" parent="1">
          <mxGeometry x="313" y="598" width="22" height="29" as="geometry" />
        </mxCell>
        <mxCell id="MEwA-Q_oqiYRqp0OGWWu-86" value="" style="ellipse;whiteSpace=wrap;html=1;aspect=fixed;fillColor=#994C00;direction=south;" vertex="1" parent="1">
          <mxGeometry x="335" y="671.25" width="35" height="35" as="geometry" />
        </mxCell>
        <mxCell id="MEwA-Q_oqiYRqp0OGWWu-87" value="" style="ellipse;whiteSpace=wrap;html=1;aspect=fixed;fillColor=#994C00;" vertex="1" parent="1">
          <mxGeometry x="248" y="626" width="35" height="35" as="geometry" />
        </mxCell>
        <mxCell id="MEwA-Q_oqiYRqp0OGWWu-88" value="" style="ellipse;whiteSpace=wrap;html=1;aspect=fixed;fillColor=#994C00;" vertex="1" parent="1">
          <mxGeometry x="394" y="516" width="35" height="35" as="geometry" />
        </mxCell>
        <mxCell id="MEwA-Q_oqiYRqp0OGWWu-89" value="" style="ellipse;whiteSpace=wrap;html=1;aspect=fixed;fillColor=#994C00;" vertex="1" parent="1">
          <mxGeometry x="481.5" y="563" width="35" height="35" as="geometry" />
        </mxCell>
        <mxCell id="MEwA-Q_oqiYRqp0OGWWu-90" value="" style="ellipse;whiteSpace=wrap;html=1;aspect=fixed;fillColor=#994C00;" vertex="1" parent="1">
          <mxGeometry x="427" y="671.25" width="35" height="35" as="geometry" />
        </mxCell>
        <mxCell id="MEwA-Q_oqiYRqp0OGWWu-97" style="rounded=0;orthogonalLoop=1;jettySize=auto;html=1;exitX=0;exitY=0.75;exitDx=0;exitDy=0;strokeColor=#FFFFFF;strokeWidth=2;endArrow=none;endFill=0;" edge="1" parent="1" source="MEwA-Q_oqiYRqp0OGWWu-92" target="MEwA-Q_oqiYRqp0OGWWu-86">
          <mxGeometry relative="1" as="geometry" />
        </mxCell>
        <mxCell id="MEwA-Q_oqiYRqp0OGWWu-98" style="rounded=0;orthogonalLoop=1;jettySize=auto;html=1;exitX=1;exitY=0.5;exitDx=0;exitDy=0;entryX=0.5;entryY=0;entryDx=0;entryDy=0;strokeWidth=2;strokeColor=#FFFFFF;endArrow=none;endFill=0;" edge="1" parent="1" source="MEwA-Q_oqiYRqp0OGWWu-92" target="MEwA-Q_oqiYRqp0OGWWu-90">
          <mxGeometry relative="1" as="geometry" />
        </mxCell>
        <mxCell id="MEwA-Q_oqiYRqp0OGWWu-99" style="rounded=0;orthogonalLoop=1;jettySize=auto;html=1;exitX=1;exitY=0.5;exitDx=0;exitDy=0;entryX=0;entryY=0.5;entryDx=0;entryDy=0;endArrow=none;endFill=0;strokeWidth=2;strokeColor=#FFFFFF;" edge="1" parent="1" source="MEwA-Q_oqiYRqp0OGWWu-92" target="MEwA-Q_oqiYRqp0OGWWu-89">
          <mxGeometry relative="1" as="geometry" />
        </mxCell>
        <mxCell id="MEwA-Q_oqiYRqp0OGWWu-100" style="rounded=0;orthogonalLoop=1;jettySize=auto;html=1;exitX=0;exitY=0.25;exitDx=0;exitDy=0;entryX=1;entryY=1;entryDx=0;entryDy=0;strokeWidth=2;strokeColor=#FFFFFF;endArrow=none;endFill=0;" edge="1" parent="1" source="MEwA-Q_oqiYRqp0OGWWu-92" target="PrBTOdZ4H55qHyfsa1yD-226">
          <mxGeometry relative="1" as="geometry" />
        </mxCell>
        <mxCell id="MEwA-Q_oqiYRqp0OGWWu-92" value="" style="triangle;whiteSpace=wrap;html=1;fillColor=none;strokeColor=#FFFFFF;strokeWidth=2;rotation=15;" vertex="1" parent="1">
          <mxGeometry x="423" y="586" width="22" height="29" as="geometry" />
        </mxCell>
        <mxCell id="MEwA-Q_oqiYRqp0OGWWu-102" style="rounded=0;orthogonalLoop=1;jettySize=auto;html=1;exitX=1;exitY=1;exitDx=0;exitDy=0;entryX=0.336;entryY=0.098;entryDx=0;entryDy=0;strokeWidth=2;strokeColor=#FFFFFF;endArrow=none;endFill=0;entryPerimeter=0;" edge="1" parent="1" source="MEwA-Q_oqiYRqp0OGWWu-103" target="MEwA-Q_oqiYRqp0OGWWu-107">
          <mxGeometry relative="1" as="geometry" />
        </mxCell>
        <mxCell id="MEwA-Q_oqiYRqp0OGWWu-103" value="" style="ellipse;whiteSpace=wrap;html=1;aspect=fixed;fillColor=#994C00;" vertex="1" parent="1">
          <mxGeometry x="291" y="830" width="35" height="35" as="geometry" />
        </mxCell>
        <mxCell id="MEwA-Q_oqiYRqp0OGWWu-105" style="rounded=0;orthogonalLoop=1;jettySize=auto;html=1;exitX=0;exitY=0.75;exitDx=0;exitDy=0;entryX=1;entryY=0;entryDx=0;entryDy=0;strokeColor=#FFFFFF;strokeWidth=2;endArrow=none;endFill=0;" edge="1" parent="1" source="MEwA-Q_oqiYRqp0OGWWu-107" target="MEwA-Q_oqiYRqp0OGWWu-109">
          <mxGeometry relative="1" as="geometry" />
        </mxCell>
        <mxCell id="MEwA-Q_oqiYRqp0OGWWu-106" style="rounded=0;orthogonalLoop=1;jettySize=auto;html=1;exitX=1;exitY=0.5;exitDx=0;exitDy=0;entryX=0;entryY=1;entryDx=0;entryDy=0;strokeColor=#FFFFFF;endArrow=none;endFill=0;strokeWidth=2;" edge="1" parent="1" target="MEwA-Q_oqiYRqp0OGWWu-108">
          <mxGeometry relative="1" as="geometry">
            <mxPoint x="339.4951840891798" y="924.0029905038724" as="sourcePoint" />
            <mxPoint x="344.9956313292355" y="990.7256313292354" as="targetPoint" />
          </mxGeometry>
        </mxCell>
        <mxCell id="MEwA-Q_oqiYRqp0OGWWu-107" value="" style="triangle;whiteSpace=wrap;html=1;fillColor=none;strokeColor=#FFFFFF;strokeWidth=2;rotation=-15;" vertex="1" parent="1">
          <mxGeometry x="323" y="907" width="22" height="29" as="geometry" />
        </mxCell>
        <mxCell id="MEwA-Q_oqiYRqp0OGWWu-108" value="" style="ellipse;whiteSpace=wrap;html=1;aspect=fixed;fillColor=#994C00;direction=south;" vertex="1" parent="1">
          <mxGeometry x="345" y="980.25" width="35" height="35" as="geometry" />
        </mxCell>
        <mxCell id="MEwA-Q_oqiYRqp0OGWWu-109" value="" style="ellipse;whiteSpace=wrap;html=1;aspect=fixed;fillColor=#994C00;" vertex="1" parent="1">
          <mxGeometry x="258" y="935" width="35" height="35" as="geometry" />
        </mxCell>
        <mxCell id="MEwA-Q_oqiYRqp0OGWWu-123" style="rounded=0;orthogonalLoop=1;jettySize=auto;html=1;exitX=1;exitY=1;exitDx=0;exitDy=0;entryX=0;entryY=0.25;entryDx=0;entryDy=0;endArrow=none;endFill=0;strokeWidth=2;strokeColor=#FFFFFF;" edge="1" parent="1" source="MEwA-Q_oqiYRqp0OGWWu-110" target="MEwA-Q_oqiYRqp0OGWWu-118">
          <mxGeometry relative="1" as="geometry" />
        </mxCell>
        <mxCell id="MEwA-Q_oqiYRqp0OGWWu-110" value="" style="ellipse;whiteSpace=wrap;html=1;aspect=fixed;fillColor=#994C00;" vertex="1" parent="1">
          <mxGeometry x="358" y="791" width="35" height="35" as="geometry" />
        </mxCell>
        <mxCell id="MEwA-Q_oqiYRqp0OGWWu-111" value="" style="ellipse;whiteSpace=wrap;html=1;aspect=fixed;fillColor=#994C00;" vertex="1" parent="1">
          <mxGeometry x="493" y="893" width="35" height="35" as="geometry" />
        </mxCell>
        <mxCell id="MEwA-Q_oqiYRqp0OGWWu-112" value="" style="ellipse;whiteSpace=wrap;html=1;aspect=fixed;fillColor=#994C00;" vertex="1" parent="1">
          <mxGeometry x="437" y="980.25" width="35" height="35" as="geometry" />
        </mxCell>
        <mxCell id="MEwA-Q_oqiYRqp0OGWWu-113" style="rounded=0;orthogonalLoop=1;jettySize=auto;html=1;exitX=0;exitY=0.75;exitDx=0;exitDy=0;strokeColor=#FFFFFF;strokeWidth=2;endArrow=none;endFill=0;" edge="1" parent="1" source="MEwA-Q_oqiYRqp0OGWWu-117" target="MEwA-Q_oqiYRqp0OGWWu-108">
          <mxGeometry relative="1" as="geometry" />
        </mxCell>
        <mxCell id="MEwA-Q_oqiYRqp0OGWWu-114" style="rounded=0;orthogonalLoop=1;jettySize=auto;html=1;exitX=1;exitY=0.5;exitDx=0;exitDy=0;entryX=0.5;entryY=0;entryDx=0;entryDy=0;strokeWidth=2;strokeColor=#FFFFFF;endArrow=none;endFill=0;" edge="1" parent="1" source="MEwA-Q_oqiYRqp0OGWWu-117" target="MEwA-Q_oqiYRqp0OGWWu-112">
          <mxGeometry relative="1" as="geometry" />
        </mxCell>
        <mxCell id="MEwA-Q_oqiYRqp0OGWWu-115" style="rounded=0;orthogonalLoop=1;jettySize=auto;html=1;exitX=1;exitY=0.5;exitDx=0;exitDy=0;entryX=0;entryY=0.5;entryDx=0;entryDy=0;endArrow=none;endFill=0;strokeWidth=2;strokeColor=#FFFFFF;" edge="1" parent="1" source="MEwA-Q_oqiYRqp0OGWWu-117" target="MEwA-Q_oqiYRqp0OGWWu-111">
          <mxGeometry relative="1" as="geometry" />
        </mxCell>
        <mxCell id="MEwA-Q_oqiYRqp0OGWWu-117" value="" style="triangle;whiteSpace=wrap;html=1;fillColor=none;strokeColor=#FFFFFF;strokeWidth=2;rotation=15;" vertex="1" parent="1">
          <mxGeometry x="419" y="921" width="22" height="29" as="geometry" />
        </mxCell>
        <mxCell id="MEwA-Q_oqiYRqp0OGWWu-125" style="rounded=0;orthogonalLoop=1;jettySize=auto;html=1;exitX=0.5;exitY=0;exitDx=0;exitDy=0;endArrow=none;endFill=0;strokeWidth=2;strokeColor=#FFFFFF;" edge="1" parent="1" source="MEwA-Q_oqiYRqp0OGWWu-118" target="MEwA-Q_oqiYRqp0OGWWu-124">
          <mxGeometry relative="1" as="geometry" />
        </mxCell>
        <mxCell id="MEwA-Q_oqiYRqp0OGWWu-118" value="" style="triangle;whiteSpace=wrap;html=1;fillColor=none;strokeColor=#FFFFFF;strokeWidth=2;rotation=15;" vertex="1" parent="1">
          <mxGeometry x="415" y="849" width="22" height="29" as="geometry" />
        </mxCell>
        <mxCell id="MEwA-Q_oqiYRqp0OGWWu-124" value="" style="ellipse;whiteSpace=wrap;html=1;aspect=fixed;fillColor=#994C00;" vertex="1" parent="1">
          <mxGeometry x="452" y="801" width="35" height="35" as="geometry" />
        </mxCell>
        <mxCell id="MEwA-Q_oqiYRqp0OGWWu-126" value="&lt;br style=&quot;font-size: 20px;&quot;&gt;Trajectories Hyperedge Group&amp;nbsp;" style="text;html=1;strokeColor=none;fillColor=none;align=center;verticalAlign=middle;whiteSpace=wrap;rounded=0;fontColor=#FFFFFF;fontSize=20;" vertex="1" parent="1">
          <mxGeometry x="283" y="713" width="185" height="32" as="geometry" />
        </mxCell>
        <mxCell id="MEwA-Q_oqiYRqp0OGWWu-127" value="&lt;br style=&quot;font-size: 20px;&quot;&gt;Categories Hyperedge Group&amp;nbsp;" style="text;html=1;strokeColor=none;fillColor=none;align=center;verticalAlign=middle;whiteSpace=wrap;rounded=0;fontColor=#FFFFFF;fontSize=20;" vertex="1" parent="1">
          <mxGeometry x="283" y="1019" width="185" height="32" as="geometry" />
        </mxCell>
        <mxCell id="MEwA-Q_oqiYRqp0OGWWu-130" value="" style="html=1;shadow=0;dashed=0;align=center;verticalAlign=middle;shape=mxgraph.arrows2.bendArrow;dy=15;dx=38;notch=0;arrowHead=55;rounded=0;rotation=90;fillColor=none;strokeColor=#FFFFFF;strokeWidth=2;" vertex="1" parent="1">
          <mxGeometry x="564" y="586" width="138" height="150.75" as="geometry" />
        </mxCell>
        <mxCell id="MEwA-Q_oqiYRqp0OGWWu-131" value="" style="html=1;shadow=0;dashed=0;align=center;verticalAlign=middle;shape=mxgraph.arrows2.bendArrow;dy=15;dx=38;notch=0;arrowHead=55;rounded=0;rotation=90;fillColor=none;strokeColor=#FFFFFF;strokeWidth=2;direction=east;flipH=1;" vertex="1" parent="1">
          <mxGeometry x="567" y="819.25" width="132" height="150.75" as="geometry" />
        </mxCell>
        <mxCell id="MEwA-Q_oqiYRqp0OGWWu-132" value="" style="shape=orEllipse;perimeter=ellipsePerimeter;whiteSpace=wrap;html=1;backgroundOutline=1;fillColor=none;strokeColor=#FFFFFF;strokeWidth=2;" vertex="1" parent="1">
          <mxGeometry x="652" y="758" width="50" height="50" as="geometry" />
        </mxCell>
        <mxCell id="MEwA-Q_oqiYRqp0OGWWu-133" value="" style="html=1;shadow=0;dashed=0;align=center;verticalAlign=middle;shape=mxgraph.arrows2.arrow;dy=0.6;dx=40;notch=0;fillColor=none;strokeColor=#FFFFFF;strokeWidth=2;" vertex="1" parent="1">
          <mxGeometry x="746" y="749" width="100" height="70" as="geometry" />
        </mxCell>
        <mxCell id="MEwA-Q_oqiYRqp0OGWWu-138" value="" style="html=1;shadow=0;dashed=0;align=center;verticalAlign=middle;shape=mxgraph.arrows2.arrow;dy=0.6;dx=40;notch=0;fillColor=none;strokeColor=#FFFFFF;strokeWidth=2;" vertex="1" parent="1">
          <mxGeometry x="1060" y="756" width="100" height="70" as="geometry" />
        </mxCell>
        <mxCell id="MEwA-Q_oqiYRqp0OGWWu-140" value="" style="curved=1;endArrow=classic;html=1;rounded=0;strokeWidth=3;strokeColor=#FFFFFF;" edge="1" parent="1">
          <mxGeometry width="50" height="50" relative="1" as="geometry">
            <mxPoint x="1434" y="827.75" as="sourcePoint" />
            <mxPoint x="1500.75" y="765.75" as="targetPoint" />
            <Array as="points">
              <mxPoint x="1449" y="863.75" />
              <mxPoint x="1484" y="871.25" />
              <mxPoint x="1508.75" y="855.5" />
              <mxPoint x="1526.75" y="812.5" />
            </Array>
          </mxGeometry>
        </mxCell>
        <mxCell id="MEwA-Q_oqiYRqp0OGWWu-142" value="" style="curved=1;endArrow=classic;html=1;rounded=0;strokeWidth=3;strokeColor=#FFFFFF;" edge="1" parent="1">
          <mxGeometry width="50" height="50" relative="1" as="geometry">
            <mxPoint x="1362" y="884.5" as="sourcePoint" />
            <mxPoint x="1428.75" y="822.5" as="targetPoint" />
            <Array as="points">
              <mxPoint x="1377" y="920.5" />
              <mxPoint x="1412" y="928" />
              <mxPoint x="1436.75" y="912.25" />
              <mxPoint x="1454.75" y="869.25" />
            </Array>
          </mxGeometry>
        </mxCell>
        <mxCell id="MEwA-Q_oqiYRqp0OGWWu-168" style="edgeStyle=orthogonalEdgeStyle;rounded=0;orthogonalLoop=1;jettySize=auto;html=1;exitX=0.5;exitY=1;exitDx=0;exitDy=0;entryX=1;entryY=0.75;entryDx=0;entryDy=0;strokeColor=#FFFFFF;strokeWidth=2;" edge="1" parent="1" source="MEwA-Q_oqiYRqp0OGWWu-145" target="PrBTOdZ4H55qHyfsa1yD-198">
          <mxGeometry relative="1" as="geometry" />
        </mxCell>
        <mxCell id="MEwA-Q_oqiYRqp0OGWWu-145" value="" style="shape=orEllipse;perimeter=ellipsePerimeter;whiteSpace=wrap;html=1;backgroundOutline=1;fillColor=none;strokeColor=#FFFFFF;strokeWidth=2;" vertex="1" parent="1">
          <mxGeometry x="2139" y="754.25" width="80" height="80" as="geometry" />
        </mxCell>
        <mxCell id="MEwA-Q_oqiYRqp0OGWWu-146" value="" style="rounded=0;whiteSpace=wrap;html=1;fillColor=#3333FF;strokeColor=#FFFFFF;strokeWidth=2;fontStyle=1" vertex="1" parent="1">
          <mxGeometry x="1726" y="779.5" width="33" height="33" as="geometry" />
        </mxCell>
        <mxCell id="MEwA-Q_oqiYRqp0OGWWu-147" value="" style="rounded=0;whiteSpace=wrap;html=1;fillColor=#0000FF;strokeColor=#FFFFFF;strokeWidth=2;fontStyle=1" vertex="1" parent="1">
          <mxGeometry x="1759" y="779.5" width="33" height="33" as="geometry" />
        </mxCell>
        <mxCell id="MEwA-Q_oqiYRqp0OGWWu-148" value="" style="rounded=0;whiteSpace=wrap;html=1;fillColor=#0000CC;strokeColor=#FFFFFF;strokeWidth=2;fontStyle=1" vertex="1" parent="1">
          <mxGeometry x="1792" y="779.5" width="33" height="33" as="geometry" />
        </mxCell>
        <mxCell id="MEwA-Q_oqiYRqp0OGWWu-149" value="" style="rounded=0;whiteSpace=wrap;html=1;fillColor=#FF8000;strokeColor=#FFFFFF;strokeWidth=2;" vertex="1" parent="1">
          <mxGeometry x="1726" y="821.5" width="33" height="33" as="geometry" />
        </mxCell>
        <mxCell id="MEwA-Q_oqiYRqp0OGWWu-150" value="" style="rounded=0;whiteSpace=wrap;html=1;fillColor=#CC6600;strokeColor=#FFFFFF;strokeWidth=2;" vertex="1" parent="1">
          <mxGeometry x="1759" y="821.5" width="33" height="33" as="geometry" />
        </mxCell>
        <mxCell id="MEwA-Q_oqiYRqp0OGWWu-151" value="" style="rounded=0;whiteSpace=wrap;html=1;fillColor=#994C00;strokeColor=#FFFFFF;strokeWidth=2;" vertex="1" parent="1">
          <mxGeometry x="1792" y="821.5" width="33" height="33" as="geometry" />
        </mxCell>
        <mxCell id="MEwA-Q_oqiYRqp0OGWWu-159" value="" style="rounded=0;whiteSpace=wrap;html=1;fillColor=#3333FF;strokeColor=#FFFFFF;strokeWidth=2;fontStyle=1" vertex="1" parent="1">
          <mxGeometry x="2517.25" y="780" width="33" height="33" as="geometry" />
        </mxCell>
        <mxCell id="MEwA-Q_oqiYRqp0OGWWu-160" value="" style="rounded=0;whiteSpace=wrap;html=1;fillColor=#0000FF;strokeColor=#FFFFFF;strokeWidth=2;fontStyle=1" vertex="1" parent="1">
          <mxGeometry x="2550.25" y="780" width="33" height="33" as="geometry" />
        </mxCell>
        <mxCell id="MEwA-Q_oqiYRqp0OGWWu-161" value="" style="rounded=0;whiteSpace=wrap;html=1;fillColor=#0000CC;strokeColor=#FFFFFF;strokeWidth=2;fontStyle=1" vertex="1" parent="1">
          <mxGeometry x="2583.25" y="780" width="33" height="33" as="geometry" />
        </mxCell>
        <mxCell id="MEwA-Q_oqiYRqp0OGWWu-162" value="" style="rounded=0;whiteSpace=wrap;html=1;fillColor=#FF8000;strokeColor=#FFFFFF;strokeWidth=2;" vertex="1" parent="1">
          <mxGeometry x="2517.25" y="822" width="33" height="33" as="geometry" />
        </mxCell>
        <mxCell id="MEwA-Q_oqiYRqp0OGWWu-163" value="" style="rounded=0;whiteSpace=wrap;html=1;fillColor=#CC6600;strokeColor=#FFFFFF;strokeWidth=2;" vertex="1" parent="1">
          <mxGeometry x="2550.25" y="822" width="33" height="33" as="geometry" />
        </mxCell>
        <mxCell id="MEwA-Q_oqiYRqp0OGWWu-164" value="" style="rounded=0;whiteSpace=wrap;html=1;fillColor=#994C00;strokeColor=#FFFFFF;strokeWidth=2;" vertex="1" parent="1">
          <mxGeometry x="2583.25" y="822" width="33" height="33" as="geometry" />
        </mxCell>
        <mxCell id="MEwA-Q_oqiYRqp0OGWWu-165" value="" style="html=1;shadow=0;dashed=0;align=center;verticalAlign=middle;shape=mxgraph.arrows2.arrow;dy=0.6;dx=40;notch=0;fillColor=none;strokeColor=#FFFFFF;strokeWidth=2;" vertex="1" parent="1">
          <mxGeometry x="1892" y="758" width="181" height="70" as="geometry" />
        </mxCell>
        <mxCell id="MEwA-Q_oqiYRqp0OGWWu-166" value="" style="html=1;shadow=0;dashed=0;align=center;verticalAlign=middle;shape=mxgraph.arrows2.arrow;dy=0.6;dx=40;notch=0;fillColor=none;strokeColor=#FFFFFF;strokeWidth=2;rotation=-180;" vertex="1" parent="1">
          <mxGeometry x="2278" y="762.13" width="181" height="70" as="geometry" />
        </mxCell>
      </root>
    </mxGraphModel>
  </diagram>
</mxfile>
